# This file uses centimeters as units for non-parametric coordinates.

v -0.750025 1.000000 0.750025
v -0.845686 0.980972 0.750025
v -0.926784 0.926784 0.750025
v -0.980972 0.845686 0.750025
v -1.000000 0.750025 0.750025
v -0.980972 0.750025 0.845686
v -0.926784 0.750025 0.926784
v -0.845686 0.750025 0.980972
v -0.750025 0.750025 1.000000
v -0.750025 0.845686 0.980972
v -0.750025 0.926784 0.926784
v -0.750025 0.980972 0.845686
v 1.000000 0.750025 0.750025
v 0.980972 0.845686 0.750025
v 0.926784 0.926784 0.750025
v 0.845686 0.980972 0.750025
v 0.750025 1.000000 0.750025
v 0.750025 0.980972 0.845686
v 0.750025 0.926784 0.926784
v 0.750025 0.845686 0.980972
v 0.750025 0.750025 1.000000
v 0.845686 0.750025 0.980972
v 0.926784 0.750025 0.926784
v 0.980972 0.750025 0.845686
v -0.750025 0.750025 -1.000000
v -0.845686 0.750025 -0.980972
v -0.926784 0.750025 -0.926784
v -0.980972 0.750025 -0.845686
v -1.000000 0.750025 -0.750025
v -0.980972 0.845686 -0.750025
v -0.926784 0.926784 -0.750025
v -0.845686 0.980972 -0.750025
v -0.750025 1.000000 -0.750025
v -0.750025 0.980972 -0.845686
v -0.750025 0.926784 -0.926784
v -0.750025 0.845686 -0.980972
v 1.000000 0.750025 -0.750025
v 0.980972 0.750025 -0.845686
v 0.926784 0.750025 -0.926784
v 0.845686 0.750025 -0.980972
v 0.750025 0.750025 -1.000000
v 0.750025 0.845686 -0.980972
v 0.750025 0.926784 -0.926784
v 0.750025 0.980972 -0.845686
v 0.750025 1.000000 -0.750025
v 0.845686 0.980972 -0.750025
v 0.926784 0.926784 -0.750025
v 0.980972 0.845686 -0.750025
v -1.000000 -1.000000 0.750025
v -0.750025 -1.000000 1.000000
v -0.845686 -1.000000 0.980972
v -0.926784 -1.000000 0.926784
v -0.980972 -1.000000 0.845686
v 1.000000 -1.000000 0.750025
v 0.980972 -1.000000 0.845686
v 0.926784 -1.000000 0.926784
v 0.845686 -1.000000 0.980972
v 0.750025 -1.000000 1.000000
v -1.000000 -1.000000 -0.750025
v -0.980972 -1.000000 -0.845686
v -0.926784 -1.000000 -0.926784
v -0.845686 -1.000000 -0.980972
v -0.750025 -1.000000 -1.000000
v 1.000000 -1.000000 -0.750025
v 0.750025 -1.000000 -1.000000
v 0.845686 -1.000000 -0.980972
v 0.926784 -1.000000 -0.926784
v 0.980972 -1.000000 -0.845686
v -0.842045 0.963392 0.842045
v -0.916693 0.916693 0.831677
v -0.963392 0.842045 0.842045
v -0.916693 0.831677 0.916693
v -0.842045 0.842045 0.963392
v -0.831677 0.916693 0.916693
v -0.892270 0.892270 0.892270
v 0.963392 0.842045 0.842045
v 0.916693 0.916693 0.831677
v 0.842045 0.963392 0.842045
v 0.831677 0.916693 0.916693
v 0.842045 0.842045 0.963392
v 0.916693 0.831677 0.916693
v 0.892270 0.892270 0.892270
v -0.842045 0.842045 -0.963392
v -0.916693 0.831677 -0.916693
v -0.963392 0.842045 -0.842045
v -0.916693 0.916693 -0.831677
v -0.842045 0.963392 -0.842045
v -0.831677 0.916693 -0.916693
v -0.892270 0.892270 -0.892270
v 0.963392 0.842045 -0.842045
v 0.916693 0.831677 -0.916693
v 0.842045 0.842045 -0.963392
v 0.831677 0.916693 -0.916693
v 0.842045 0.963392 -0.842045
v 0.916693 0.916693 -0.831677
v 0.892270 0.892270 -0.892270
vt 0.127063 0.002756
vt 0.995958 0.126869
vt 0.871844 0.995764
vt 0.002950 0.871650
vt 0.127072 0.002750
vt 0.127068 0.002776
vt 0.127068 0.002750
vt 0.871848 0.995764
vt 0.871852 0.959406
vt 0.039310 0.871670
vt 0.079572 0.002776
vt 0.039307 0.871670
vt 0.039307 0.002776
vt 0.919349 0.002750
vt 0.959614 0.002750
vt 0.871853 0.002750
vt 0.127072 0.126889
vt 0.127072 0.039128
vt 0.871849 0.959432
vt 0.871853 0.126889
vt 0.959614 0.126889
vt 0.871849 0.959406
vt 0.127068 0.871645
vt 0.079572 0.002750
vt 0.039307 0.871645
vt 0.039307 0.002750
vt 0.919345 0.002776
vt 0.959611 0.002776
vt 0.871849 0.002776
vt 0.127072 0.871645
vt 0.079575 0.002750
vt 0.039310 0.871645
vt 0.039310 0.002750
vt 0.079571 0.995763
vt 0.039305 0.995763
vt 0.127067 0.995763
vt 0.127067 0.126869
vt 0.127067 0.039108
vt 0.871852 0.959432
vt 0.871853 0.871670
vt 0.871848 0.126869
vt 0.919344 0.995763
vt 0.959609 0.126869
vt 0.959609 0.995763
vt 0.919345 0.002750
vt 0.959611 0.002750
vt 0.871849 0.002750
vt 0.127063 0.995763
vt 0.079567 0.986316
vt 0.039302 0.959411
vt 0.012397 0.919146
vt 0.995958 0.871650
vt 0.986510 0.919146
vt 0.959606 0.959411
vt 0.919340 0.986316
vt 0.002950 0.126869
vt 0.012397 0.079373
vt 0.039302 0.039108
vt 0.079567 0.012203
vt 0.871844 0.002756
vt 0.919340 0.012203
vt 0.959606 0.039108
vt 0.986510 0.079373
vt 0.079575 0.126889
vt 0.039310 0.126889
vt 0.912393 0.954396
vt 0.871853 0.919141
vt 0.871853 0.871645
vt 0.919349 0.871645
vt 0.959614 0.871645
vt 0.044317 0.912211
vt 0.079572 0.871670
vt 0.127068 0.871670
vt 0.127068 0.919166
vt 0.127068 0.959432
vt 0.086531 0.044138
vt 0.127072 0.079393
vt 0.081383 0.081201
vt 0.044320 0.086349
vt 0.056447 0.056264
vt 0.917541 0.917333
vt 0.954604 0.912185
vt 0.942477 0.942270
vt 0.081380 0.917359
vt 0.086528 0.954421
vt 0.056443 0.942295
vt 0.127068 0.919141
vt 0.127068 0.959406
vt 0.954604 0.086349
vt 0.919349 0.126889
vt 0.871853 0.079393
vt 0.871853 0.039128
vt 0.912389 0.954421
vt 0.871849 0.919166
vt 0.871849 0.871670
vt 0.919345 0.871670
vt 0.959611 0.871670
vt 0.044317 0.912185
vt 0.079572 0.871645
vt 0.081380 0.917333
vt 0.086528 0.954396
vt 0.056443 0.942270
vt 0.917541 0.081201
vt 0.912393 0.044138
vt 0.942477 0.056264
vt 0.917537 0.917359
vt 0.954600 0.912211
vt 0.942474 0.942295
vt 0.079571 0.126869
vt 0.039305 0.126869
vt 0.044320 0.912185
vt 0.079575 0.871645
vt 0.127072 0.919141
vt 0.127072 0.959406
vt 0.044320 0.912211
vt 0.079575 0.871670
vt 0.127072 0.871670
vt 0.127072 0.919166
vt 0.127072 0.959432
vt 0.086527 0.044118
vt 0.127067 0.079373
vt 0.081379 0.081181
vt 0.044316 0.086329
vt 0.056442 0.056244
vt 0.081383 0.917333
vt 0.086531 0.954396
vt 0.056447 0.942270
vt 0.081383 0.917359
vt 0.086531 0.954421
vt 0.056447 0.942295
vt 0.871849 0.871645
vt 0.919345 0.871645
vt 0.959611 0.871645
vt 0.954599 0.086329
vt 0.919344 0.126869
vt 0.871848 0.079373
vt 0.871848 0.039108
vt 0.912393 0.954421
vt 0.871853 0.919166
vt 0.919349 0.871670
vt 0.959614 0.871670
vt 0.912389 0.954396
vt 0.871849 0.919141
vt 0.917537 0.917333
vt 0.954600 0.912185
vt 0.942474 0.942270
vt 0.917536 0.081181
vt 0.912388 0.044118
vt 0.942473 0.056244
vt 0.917541 0.917359
vt 0.954604 0.912211
vt 0.942477 0.942295
vn 0.000000 -1.000000 0.000000
vn 0.000000 -1.000000 0.000000
vn 0.000000 -1.000000 0.000000
vn 0.000000 -1.000000 0.000000
vn 0.000000 -1.000000 0.000000
vn 0.000000 -1.000000 0.000000
vn 0.000000 -1.000000 0.000000
vn 0.000000 -1.000000 0.000000
vn -0.999929 0.000000 0.011924
vn -0.999877 0.010272 0.011887
vn -0.999877 0.010272 -0.011887
vn -0.999929 0.000000 -0.011924
vn 0.011924 0.000000 0.999929
vn 0.011887 0.010272 0.999877
vn -0.011887 0.010272 0.999877
vn -0.011924 0.000000 0.999929
vn 0.011882 0.999859 0.011882
vn 0.011882 0.999859 -0.011882
vn -0.011882 0.999859 -0.011882
vn -0.011882 0.999859 0.011882
vn 0.999929 0.000000 -0.011924
vn 0.999877 0.010272 -0.011887
vn 0.999877 0.010272 0.011887
vn 0.999929 0.000000 0.011924
vn -0.011924 0.000000 -0.999929
vn -0.011887 0.010272 -0.999877
vn 0.011887 0.010272 -0.999877
vn 0.011924 0.000000 -0.999929
vn -0.924185 0.381808 0.010245
vn -0.924185 0.381808 -0.010245
vn -0.707077 0.707077 0.009213
vn -0.707077 0.707077 -0.009213
vn -0.381808 0.924185 0.010245
vn -0.381808 0.924185 -0.010245
vn -0.381929 0.008850 0.924149
vn -0.382683 0.000000 0.923880
vn -0.707084 0.007955 0.707084
vn -0.707107 0.000000 0.707107
vn -0.924149 0.008850 0.381929
vn -0.923880 0.000000 0.382683
vn -0.010245 0.924185 0.381808
vn 0.010245 0.924185 0.381808
vn -0.009213 0.707077 0.707077
vn 0.009213 0.707077 0.707077
vn -0.010245 0.381808 0.924185
vn 0.010245 0.381808 0.924185
vn 0.381808 0.924185 0.010245
vn 0.381808 0.924185 -0.010245
vn 0.707077 0.707077 0.009213
vn 0.707077 0.707077 -0.009213
vn 0.924185 0.381808 0.010245
vn 0.924185 0.381808 -0.010245
vn 0.924149 0.008850 0.381929
vn 0.923880 0.000000 0.382683
vn 0.707084 0.007955 0.707084
vn 0.707107 0.000000 0.707107
vn 0.381929 0.008850 0.924149
vn 0.382683 0.000000 0.923880
vn -0.924149 0.008850 -0.381929
vn -0.923880 0.000000 -0.382683
vn -0.707084 0.007955 -0.707084
vn -0.707107 0.000000 -0.707107
vn -0.381929 0.008850 -0.924149
vn -0.382683 0.000000 -0.923880
vn -0.010245 0.381808 -0.924185
vn 0.010245 0.381808 -0.924185
vn -0.009213 0.707077 -0.707077
vn 0.009213 0.707077 -0.707077
vn -0.010245 0.924185 -0.381808
vn 0.010245 0.924185 -0.381808
vn 0.381929 0.008850 -0.924149
vn 0.382683 0.000000 -0.923880
vn 0.707084 0.007955 -0.707084
vn 0.707107 0.000000 -0.707107
vn 0.924149 0.008850 -0.381929
vn 0.923880 0.000000 -0.382683
vn 0.000000 -1.000000 0.000000
vn 0.000000 -1.000000 0.000000
vn 0.000000 -1.000000 0.000000
vn 0.000000 -1.000000 0.000000
vn 0.000000 -1.000000 0.000000
vn 0.000000 -1.000000 0.000000
vn 0.000000 -1.000000 0.000000
vn 0.000000 -1.000000 0.000000
vn 0.000000 -1.000000 0.000000
vn 0.000000 -1.000000 0.000000
vn 0.000000 -1.000000 0.000000
vn 0.000000 -1.000000 0.000000
vn -0.345892 0.872192 0.345891
vn -0.673880 0.673880 0.302939
vn -0.872192 0.345891 0.345892
vn -0.673880 0.302939 0.673880
vn -0.345891 0.345892 0.872192
vn -0.302939 0.673880 0.673880
vn -0.577350 0.577350 0.577350
vn 0.872192 0.345891 0.345892
vn 0.673880 0.673880 0.302939
vn 0.345892 0.872192 0.345891
vn 0.302939 0.673880 0.673880
vn 0.345891 0.345892 0.872192
vn 0.673880 0.302939 0.673880
vn 0.577350 0.577350 0.577350
vn -0.345891 0.345892 -0.872192
vn -0.673880 0.302939 -0.673880
vn -0.872192 0.345891 -0.345892
vn -0.673880 0.673880 -0.302939
vn -0.345892 0.872192 -0.345891
vn -0.302939 0.673880 -0.673880
vn -0.577350 0.577350 -0.577350
vn 0.872192 0.345891 -0.345892
vn 0.673880 0.302939 -0.673880
vn 0.345891 0.345892 -0.872192
vn 0.302939 0.673880 -0.673880
vn 0.345892 0.872192 -0.345891
vn 0.673880 0.673880 -0.302939
vn 0.577350 0.577350 -0.577350
s 1
f 59/56/1 63/1/2 65/60/3 64/2/4 54/52/5 58/3/6 50/48/7 49/4/8
s 2
f 49/16/9 5/68/10 29/30/11 59/5/12
f 58/29/13 21/95/14 9/73/15 50/6/16
f 17/20/17 45/40/18 33/117/19 1/17/20
f 64/47/21 37/131/22 13/23/23 54/7/24
f 63/36/25 25/37/26 41/41/27 65/8/28
f 5/68/10 4/67/29 30/113/30 29/30/11
f 4/67/29 3/9/31 31/114/32 30/113/30
f 3/65/31 2/64/33 32/116/34 31/10/32
f 2/64/33 1/17/20 33/117/19 32/116/34
f 9/73/15 8/72/35 51/11/36 50/6/16
f 8/72/35 7/12/37 52/13/38 51/11/36
f 7/70/37 6/69/39 53/14/40 52/15/38
f 6/69/39 5/68/10 49/16/9 53/14/40
f 1/17/20 12/77/41 18/91/42 17/20/17
f 12/77/41 11/18/43 19/92/44 18/91/42
f 11/75/43 10/74/45 20/94/46 19/19/44
f 10/74/45 9/73/15 21/95/14 20/94/46
f 17/20/17 16/90/47 46/140/48 45/40/18
f 16/90/47 15/21/49 47/141/50 46/140/48
f 15/88/49 14/87/51 48/143/52 47/22/50
f 14/87/51 13/23/23 37/131/22 48/143/52
f 13/23/23 24/99/53 55/24/54 54/7/24
f 24/99/53 23/25/55 56/26/56 55/24/54
f 23/97/55 22/96/57 57/27/58 56/28/56
f 22/96/57 21/95/14 58/29/13 57/27/58
f 29/30/11 28/112/59 60/31/60 59/5/12
f 28/112/59 27/32/61 61/33/62 60/31/60
f 27/110/61 26/109/63 62/34/64 61/35/62
f 26/109/63 25/37/26 63/36/25 62/34/64
f 25/37/26 36/121/65 42/136/66 41/41/27
f 36/121/65 35/38/67 43/137/68 42/136/66
f 35/119/67 34/118/69 44/139/70 43/39/68
f 34/118/69 33/117/19 45/40/18 44/139/70
f 41/41/27 40/135/71 66/42/72 65/8/28
f 40/135/71 39/43/73 67/44/74 66/42/72
f 39/133/73 38/132/75 68/45/76 67/46/74
f 38/132/75 37/131/22 64/47/21 68/45/76
s 1
f 49/4/8 50/48/7 51/49/77 52/50/78 53/51/79
f 54/52/5 55/53/80 56/54/81 57/55/82 58/3/6
f 59/56/1 60/57/83 61/58/84 62/59/85 63/1/2
f 64/2/4 65/60/3 66/61/86 67/62/87 68/63/88
s 2
f 12/77/41 1/17/20 2/64/33 69/78/89
f 69/78/89 2/64/33 3/65/31 70/79/90
f 70/66/90 3/9/31 4/67/29 71/81/91
f 4/67/29 5/68/10 6/69/39 71/81/91
f 71/81/91 6/69/39 7/70/37 72/82/92
f 72/71/92 7/12/37 8/72/35 73/84/93
f 8/72/35 9/73/15 10/74/45 73/84/93
f 73/84/93 10/74/45 11/75/43 74/85/94
f 74/76/94 11/18/43 12/77/41 69/78/89
f 74/76/94 69/78/89 70/79/90 75/80/95
f 70/66/90 71/81/91 72/82/92 75/83/95
f 72/71/92 73/84/93 74/85/94 75/86/95
f 24/99/53 13/23/23 14/87/51 76/100/96
f 76/100/96 14/87/51 15/88/49 77/101/97
f 77/89/97 15/21/49 16/90/47 78/103/98
f 16/90/47 17/20/17 18/91/42 78/103/98
f 78/103/98 18/91/42 19/92/44 79/104/99
f 79/93/99 19/19/44 20/94/46 80/106/100
f 20/94/46 21/95/14 22/96/57 80/106/100
f 80/106/100 22/96/57 23/97/55 81/107/101
f 81/98/101 23/25/55 24/99/53 76/100/96
f 81/98/101 76/100/96 77/101/97 82/102/102
f 77/89/97 78/103/98 79/104/99 82/105/102
f 79/93/99 80/106/100 81/107/101 82/108/102
f 36/121/65 25/37/26 26/109/63 83/122/103
f 83/122/103 26/109/63 27/110/61 84/123/104
f 84/111/104 27/32/61 28/112/59 85/125/105
f 28/112/59 29/30/11 30/113/30 85/125/105
f 85/125/105 30/113/30 31/114/32 86/126/106
f 86/115/106 31/10/32 32/116/34 87/128/107
f 32/116/34 33/117/19 34/118/69 87/128/107
f 87/128/107 34/118/69 35/119/67 88/129/108
f 88/120/108 35/38/67 36/121/65 83/122/103
f 88/120/108 83/122/103 84/123/104 89/124/109
f 84/111/104 85/125/105 86/126/106 89/127/109
f 86/115/106 87/128/107 88/129/108 89/130/109
f 48/143/52 37/131/22 38/132/75 90/144/110
f 90/144/110 38/132/75 39/133/73 91/145/111
f 91/134/111 39/43/73 40/135/71 92/147/112
f 40/135/71 41/41/27 42/136/66 92/147/112
f 92/147/112 42/136/66 43/137/68 93/148/113
f 93/138/113 43/39/68 44/139/70 94/150/114
f 44/139/70 45/40/18 46/140/48 94/150/114
f 94/150/114 46/140/48 47/141/50 95/151/115
f 95/142/115 47/22/50 48/143/52 90/144/110
f 95/142/115 90/144/110 91/145/111 96/146/116
f 91/134/111 92/147/112 93/148/113 96/149/116
f 93/138/113 94/150/114 95/151/115 96/152/116
