# This file uses centimeters as units for non-parametric coordinates.

v -1.000000 1.000000 1.000000
v 1.000000 1.000000 1.000000
v -1.000000 1.000000 -1.000000
v 1.000000 1.000000 -1.000000
v -1.000000 -1.000000 0.750025
v -1.000000 -0.980972 0.845686
v -1.000000 -0.926784 0.926784
v -1.000000 -0.845686 0.980972
v -1.000000 -0.750025 1.000000
v 1.000000 -1.000000 0.750025
v 1.000000 -0.750025 1.000000
v 1.000000 -0.845686 0.980972
v 1.000000 -0.926784 0.926784
v 1.000000 -0.980972 0.845686
v -1.000000 -1.000000 -0.750025
v -1.000000 -0.750025 -1.000000
v -1.000000 -0.845686 -0.980972
v -1.000000 -0.926784 -0.926784
v -1.000000 -0.980972 -0.845686
v 1.000000 -1.000000 -0.750025
v 1.000000 -0.980972 -0.845686
v 1.000000 -0.926784 -0.926784
v 1.000000 -0.845686 -0.980972
v 1.000000 -0.750025 -1.000000
vt 0.002958 0.002776
vt 0.995966 0.002776
vt 0.995966 0.995784
vt 0.002958 0.995784
vt 0.127072 0.002750
vt 0.995966 0.126864
vt 0.995966 0.995758
vt 0.002958 0.995758
vt 0.127068 0.002750
vt 0.995963 0.126864
vt 0.995963 0.995758
vt 0.002955 0.995758
vt 0.995963 0.126889
vt 0.995963 0.995784
vt 0.002955 0.995784
vt 0.995958 0.126869
vt 0.002950 0.871650
vt 0.002953 0.002756
vt 0.995961 0.002756
vt 0.002953 0.871650
vt 0.002955 0.126889
vt 0.995963 0.079393
vt 0.002955 0.079393
vt 0.002955 0.039128
vt 0.995963 0.039128
vt 0.002950 0.959411
vt 0.995958 0.919146
vt 0.995958 0.959411
vt 0.002950 0.919146
vt 0.995958 0.871650
vt 0.002950 0.126869
vt 0.995958 0.079373
vt 0.002950 0.079373
vt 0.002950 0.039108
vt 0.995958 0.039108
vt 0.002953 0.959411
vt 0.995961 0.919146
vt 0.995961 0.959411
vt 0.002953 0.919146
vt 0.995961 0.871650
vt 0.871853 0.002750
vt 0.919349 0.012198
vt 0.959614 0.039102
vt 0.986519 0.079368
vt 0.002955 0.126864
vt 0.012402 0.079368
vt 0.039307 0.039102
vt 0.079572 0.012198
vt 0.002958 0.126864
vt 0.012406 0.079368
vt 0.039310 0.039102
vt 0.079575 0.012198
vt 0.871849 0.002750
vt 0.919345 0.012198
vt 0.959611 0.039102
vt 0.986515 0.079368
vn 0.000000 -0.010309 0.999947
vn 0.000000 -0.010309 0.999947
vn 0.000000 0.000000 1.000000
vn 0.000000 0.000000 1.000000
vn 0.000000 1.000000 0.000000
vn 0.000000 1.000000 0.000000
vn 0.000000 1.000000 0.000000
vn 0.000000 1.000000 0.000000
vn 0.000000 0.000000 -1.000000
vn 0.000000 0.000000 -1.000000
vn 0.000000 -0.010309 -0.999947
vn 0.000000 -0.010309 -0.999947
vn 0.000000 -0.999929 -0.011924
vn 0.000000 -0.999929 -0.011924
vn 0.000000 -0.999929 0.011924
vn 0.000000 -0.999929 0.011924
vn 1.000000 0.000000 0.000000
vn 1.000000 0.000000 0.000000
vn 1.000000 0.000000 0.000000
vn 1.000000 0.000000 0.000000
vn 1.000000 0.000000 0.000000
vn 1.000000 0.000000 0.000000
vn -1.000000 0.000000 0.000000
vn -1.000000 0.000000 0.000000
vn -1.000000 0.000000 0.000000
vn -1.000000 0.000000 0.000000
vn -1.000000 0.000000 0.000000
vn -1.000000 0.000000 0.000000
vn 0.000000 -0.382683 0.923880
vn 0.000000 -0.382683 0.923880
vn 0.000000 -0.707107 0.707107
vn 0.000000 -0.707107 0.707107
vn 0.000000 -0.923880 0.382683
vn 0.000000 -0.923880 0.382683
vn 0.000000 -0.923880 -0.382683
vn 0.000000 -0.923880 -0.382683
vn 0.000000 -0.707107 -0.707107
vn 0.000000 -0.707107 -0.707107
vn 0.000000 -0.382683 -0.923880
vn 0.000000 -0.382683 -0.923880
vn -1.000000 0.000000 0.000000
vn -1.000000 0.000000 0.000000
vn -1.000000 0.000000 0.000000
vn 1.000000 0.000000 0.000000
vn 1.000000 0.000000 0.000000
vn 1.000000 0.000000 0.000000
vn -1.000000 0.000000 0.000000
vn -1.000000 0.000000 0.000000
vn -1.000000 0.000000 0.000000
vn 1.000000 0.000000 0.000000
vn 1.000000 0.000000 0.000000
vn 1.000000 0.000000 0.000000
s 1
f 9/21/1 11/13/2 2/14/3 1/15/4
s off
f 1/1/5 2/2/6 4/3/7 3/4/8
s 1
f 3/18/9 4/19/10 24/40/11 16/20/12
f 15/31/13 20/16/14 10/30/15 5/17/16
s 4
f 11/45/17 10/9/18 20/53/19 24/10/20 4/11/21 2/12/22
s 5
f 16/49/23 15/5/24 5/41/25 9/6/26 1/7/27 3/8/28
s 1
f 9/21/1 8/23/29 12/22/30 11/13/2
f 8/23/29 7/24/31 13/25/32 12/22/30
f 7/26/31 6/29/33 14/27/34 13/28/32
f 6/29/33 5/17/16 10/30/15 14/27/34
f 15/31/13 19/33/35 21/32/36 20/16/14
f 19/33/35 18/34/37 22/35/38 21/32/36
f 18/36/37 17/39/39 23/37/40 22/38/38
f 17/39/39 16/20/12 24/40/11 23/37/40
s 5
f 5/41/25 6/42/41 7/43/42 8/44/43 9/6/26
s 4
f 10/9/18 11/45/17 12/46/44 13/47/45 14/48/46
s 5
f 15/5/24 16/49/23 17/50/47 18/51/48 19/52/49
s 4
f 20/53/19 21/54/50 22/55/51 23/56/52 24/10/20
