# This file uses centimeters as units for non-parametric coordinates.

v -1.000000 -1.000000 0.750025
v -1.000000 -0.980972 0.845686
v -1.000000 -0.926784 0.926784
v -1.000000 -0.845686 0.980972
v -1.000000 -0.750025 1.000000
v 0.750025 -1.000000 0.750025
v 0.845686 -0.980972 0.750025
v 0.926784 -0.926784 0.750025
v 0.980972 -0.845686 0.750025
v 1.000000 -0.750025 0.750025
v 0.980972 -0.750025 0.845686
v 0.926784 -0.750025 0.926784
v 0.845686 -0.750025 0.980972
v 0.750025 -0.750025 1.000000
v 0.750025 -0.845686 0.980972
v 0.750025 -0.926784 0.926784
v 0.750025 -0.980972 0.845686
v -1.000000 1.000000 0.750025
v -1.000000 0.750025 1.000000
v -1.000000 0.845686 0.980972
v -1.000000 0.926784 0.926784
v -1.000000 0.980972 0.845686
v 1.000000 0.750025 0.750025
v 0.980972 0.845686 0.750025
v 0.926784 0.926784 0.750025
v 0.845686 0.980972 0.750025
v 0.750025 1.000000 0.750025
v 0.750025 0.980972 0.845686
v 0.750025 0.926784 0.926784
v 0.750025 0.845686 0.980972
v 0.750025 0.750025 1.000000
v 0.845686 0.750025 0.980972
v 0.926784 0.750025 0.926784
v 0.980972 0.750025 0.845686
v -1.000000 0.750025 -1.000000
v -1.000000 1.000000 -0.750025
v -1.000000 0.980972 -0.845686
v -1.000000 0.926784 -0.926784
v -1.000000 0.845686 -0.980972
v 1.000000 0.750025 -0.750025
v 0.980972 0.750025 -0.845686
v 0.926784 0.750025 -0.926784
v 0.845686 0.750025 -0.980972
v 0.750025 0.750025 -1.000000
v 0.750025 0.845686 -0.980972
v 0.750025 0.926784 -0.926784
v 0.750025 0.980972 -0.845686
v 0.750025 1.000000 -0.750025
v 0.845686 0.980972 -0.750025
v 0.926784 0.926784 -0.750025
v 0.980972 0.845686 -0.750025
v -1.000000 -1.000000 -0.750025
v -1.000000 -0.750025 -1.000000
v -1.000000 -0.845686 -0.980972
v -1.000000 -0.926784 -0.926784
v -1.000000 -0.980972 -0.845686
v 1.000000 -0.750025 -0.750025
v 0.980972 -0.845686 -0.750025
v 0.926784 -0.926784 -0.750025
v 0.845686 -0.980972 -0.750025
v 0.750025 -1.000000 -0.750025
v 0.750025 -0.980972 -0.845686
v 0.750025 -0.926784 -0.926784
v 0.750025 -0.845686 -0.980972
v 0.750025 -0.750025 -1.000000
v 0.845686 -0.750025 -0.980972
v 0.926784 -0.750025 -0.926784
v 0.980972 -0.750025 -0.845686
v 0.842045 -0.963392 0.842045
v 0.916693 -0.916693 0.831677
v 0.963392 -0.842045 0.842045
v 0.916693 -0.831677 0.916693
v 0.842045 -0.842045 0.963392
v 0.831677 -0.916693 0.916693
v 0.892270 -0.892270 0.892270
v 0.963392 0.842045 0.842045
v 0.916693 0.916693 0.831677
v 0.842045 0.963392 0.842045
v 0.831677 0.916693 0.916693
v 0.842045 0.842045 0.963392
v 0.916693 0.831677 0.916693
v 0.892270 0.892270 0.892270
v 0.963392 0.842045 -0.842045
v 0.916693 0.831677 -0.916693
v 0.842045 0.842045 -0.963392
v 0.831677 0.916693 -0.916693
v 0.842045 0.963392 -0.842045
v 0.916693 0.916693 -0.831677
v 0.892270 0.892270 -0.892270
v 0.963392 -0.842045 -0.842045
v 0.916693 -0.916693 -0.831677
v 0.842045 -0.963392 -0.842045
v 0.831677 -0.916693 -0.916693
v 0.842045 -0.842045 -0.963392
v 0.916693 -0.831677 -0.916693
v 0.892270 -0.892270 -0.892270
vt 0.127072 0.002750
vt 0.995966 0.126864
vt 0.871853 0.995758
vt 0.002958 0.871645
vt 0.002955 0.871670
vt 0.002950 0.871650
vt 0.002958 0.871670
vt 0.002953 0.871650
vt 0.002955 0.126889
vt 0.002955 0.079393
vt 0.002955 0.039128
vt 0.002950 0.959411
vt 0.871844 0.959412
vt 0.002950 0.919146
vt 0.127068 0.039102
vt 0.959606 0.126869
vt 0.871849 0.126889
vt 0.959610 0.126889
vt 0.039307 0.871645
vt 0.002958 0.126889
vt 0.002958 0.079393
vt 0.002958 0.039128
vt 0.002955 0.959432
vt 0.871849 0.959432
vt 0.002955 0.919166
vt 0.871849 0.871670
vt 0.871853 0.126889
vt 0.959614 0.126889
vt 0.871849 0.959406
vt 0.002953 0.126869
vt 0.002953 0.079373
vt 0.002953 0.039108
vt 0.002958 0.959432
vt 0.871852 0.959432
vt 0.002958 0.919166
vt 0.871853 0.871670
vt 0.871848 0.126869
vt 0.959609 0.126869
vt 0.959610 0.126864
vt 0.871849 0.126864
vt 0.002950 0.126869
vt 0.002950 0.079373
vt 0.002950 0.039108
vt 0.002953 0.959411
vt 0.871848 0.959412
vt 0.002953 0.919146
vt 0.871848 0.871650
vt 0.871853 0.002750
vt 0.919349 0.012198
vt 0.959614 0.039102
vt 0.986519 0.079368
vt 0.995966 0.871645
vt 0.986519 0.919141
vt 0.959614 0.959406
vt 0.919349 0.986311
vt 0.127072 0.995758
vt 0.079575 0.986311
vt 0.039310 0.959406
vt 0.012406 0.919141
vt 0.002958 0.126864
vt 0.012406 0.079368
vt 0.039310 0.039102
vt 0.079575 0.012198
vt 0.871844 0.871650
vt 0.919340 0.871650
vt 0.959606 0.871650
vt 0.086528 0.044113
vt 0.127068 0.079368
vt 0.127068 0.126864
vt 0.079572 0.126864
vt 0.039307 0.126864
vt 0.954600 0.086349
vt 0.919345 0.126889
vt 0.871849 0.079393
vt 0.871849 0.039128
vt 0.912385 0.954401
vt 0.871844 0.919146
vt 0.917532 0.917338
vt 0.954595 0.912190
vt 0.942469 0.942275
vt 0.081380 0.081176
vt 0.044317 0.086323
vt 0.056443 0.056239
vt 0.917537 0.081201
vt 0.912389 0.044138
vt 0.942474 0.056264
vt 0.127068 0.871645
vt 0.127068 0.919141
vt 0.127068 0.959406
vt 0.954604 0.086349
vt 0.919349 0.126889
vt 0.871853 0.079393
vt 0.871853 0.039128
vt 0.912389 0.954421
vt 0.871849 0.919166
vt 0.919345 0.871670
vt 0.959611 0.871670
vt 0.044317 0.912185
vt 0.079572 0.871645
vt 0.081380 0.917333
vt 0.086528 0.954396
vt 0.056443 0.942270
vt 0.917541 0.081201
vt 0.912393 0.044138
vt 0.942477 0.056264
vt 0.917537 0.917359
vt 0.954600 0.912211
vt 0.942474 0.942295
vt 0.871849 0.871645
vt 0.919345 0.871645
vt 0.959611 0.871645
vt 0.954599 0.086329
vt 0.919344 0.126869
vt 0.871848 0.079373
vt 0.871848 0.039108
vt 0.912393 0.954421
vt 0.871853 0.919166
vt 0.919349 0.871670
vt 0.959614 0.871670
vt 0.912389 0.954396
vt 0.871849 0.919141
vt 0.917537 0.917333
vt 0.954600 0.912185
vt 0.942474 0.942270
vt 0.917536 0.081181
vt 0.912388 0.044118
vt 0.942473 0.056244
vt 0.917541 0.917359
vt 0.954604 0.912211
vt 0.942477 0.942295
vt 0.871849 0.079368
vt 0.871849 0.039102
vt 0.954595 0.086329
vt 0.919340 0.126869
vt 0.871844 0.126869
vt 0.871844 0.079373
vt 0.871844 0.039108
vt 0.912388 0.954401
vt 0.871848 0.919146
vt 0.919344 0.871650
vt 0.959609 0.871650
vt 0.954600 0.086323
vt 0.919345 0.126864
vt 0.917537 0.081175
vt 0.912389 0.044113
vt 0.942474 0.056239
vt 0.917532 0.081181
vt 0.912385 0.044118
vt 0.917536 0.917338
vt 0.954599 0.912190
vt 0.942473 0.942275
vn -1.000000 0.000000 0.000000
vn -1.000000 0.000000 0.000000
vn -1.000000 0.000000 0.000000
vn -1.000000 0.000000 0.000000
vn -1.000000 0.000000 0.000000
vn -1.000000 0.000000 0.000000
vn -1.000000 0.000000 0.000000
vn -1.000000 0.000000 0.000000
vn 0.000000 -0.011924 0.999929
vn 0.010272 -0.011887 0.999877
vn 0.010272 0.011887 0.999877
vn 0.000000 0.011924 0.999929
vn 0.999859 -0.011882 -0.011882
vn 0.999859 0.011882 -0.011882
vn 0.999859 0.011882 0.011882
vn 0.999859 -0.011882 0.011882
vn 0.000000 -0.999929 -0.011924
vn 0.010272 -0.999877 -0.011887
vn 0.010272 -0.999877 0.011887
vn 0.000000 -0.999929 0.011924
vn 0.000000 0.999929 0.011924
vn 0.010272 0.999877 0.011887
vn 0.010272 0.999877 -0.011887
vn 0.000000 0.999929 -0.011924
vn 0.000000 0.011924 -0.999929
vn 0.010272 0.011887 -0.999877
vn 0.010272 -0.011887 -0.999877
vn 0.000000 -0.011924 -0.999929
vn 0.000000 -0.382683 0.923880
vn 0.008850 -0.381929 0.924149
vn 0.000000 -0.707107 0.707107
vn 0.007955 -0.707084 0.707084
vn 0.000000 -0.923880 0.382683
vn 0.008850 -0.924149 0.381929
vn 0.924185 -0.381808 0.010245
vn 0.924185 -0.381808 -0.010245
vn 0.707077 -0.707077 0.009213
vn 0.707077 -0.707077 -0.009213
vn 0.381808 -0.924185 0.010245
vn 0.381808 -0.924185 -0.010245
vn 0.381808 -0.010245 0.924185
vn 0.381808 0.010245 0.924185
vn 0.707077 -0.009213 0.707077
vn 0.707077 0.009213 0.707077
vn 0.924185 -0.010245 0.381808
vn 0.924185 0.010245 0.381808
vn 0.000000 0.923880 0.382683
vn 0.008850 0.924149 0.381929
vn 0.000000 0.707107 0.707107
vn 0.007955 0.707084 0.707084
vn 0.000000 0.382683 0.923880
vn 0.008850 0.381929 0.924149
vn 0.381808 0.924185 0.010245
vn 0.381808 0.924185 -0.010245
vn 0.707077 0.707077 0.009213
vn 0.707077 0.707077 -0.009213
vn 0.924185 0.381808 0.010245
vn 0.924185 0.381808 -0.010245
vn 0.000000 0.382683 -0.923880
vn 0.008850 0.381929 -0.924149
vn 0.000000 0.707107 -0.707107
vn 0.007955 0.707084 -0.707084
vn 0.000000 0.923880 -0.382683
vn 0.008850 0.924149 -0.381929
vn 0.381808 0.010245 -0.924185
vn 0.381808 -0.010245 -0.924185
vn 0.707077 0.009213 -0.707077
vn 0.707077 -0.009213 -0.707077
vn 0.924185 0.010245 -0.381808
vn 0.924185 -0.010245 -0.381808
vn 0.000000 -0.923880 -0.382683
vn 0.008850 -0.924149 -0.381929
vn 0.000000 -0.707107 -0.707107
vn 0.007955 -0.707084 -0.707084
vn 0.000000 -0.382683 -0.923880
vn 0.008850 -0.381929 -0.924149
vn -1.000000 0.000000 0.000000
vn -1.000000 0.000000 0.000000
vn -1.000000 0.000000 0.000000
vn -1.000000 0.000000 0.000000
vn -1.000000 0.000000 0.000000
vn -1.000000 0.000000 0.000000
vn -1.000000 0.000000 0.000000
vn -1.000000 0.000000 0.000000
vn -1.000000 0.000000 0.000000
vn -1.000000 0.000000 0.000000
vn -1.000000 0.000000 0.000000
vn -1.000000 0.000000 0.000000
vn 0.345892 -0.872192 0.345891
vn 0.673880 -0.673880 0.302939
vn 0.872192 -0.345891 0.345892
vn 0.673880 -0.302939 0.673880
vn 0.345891 -0.345892 0.872192
vn 0.302939 -0.673880 0.673880
vn 0.577350 -0.577350 0.577350
vn 0.872192 0.345891 0.345892
vn 0.673880 0.673880 0.302939
vn 0.345892 0.872192 0.345891
vn 0.302939 0.673880 0.673880
vn 0.345891 0.345892 0.872192
vn 0.673880 0.302939 0.673880
vn 0.577350 0.577350 0.577350
vn 0.872192 0.345891 -0.345892
vn 0.673880 0.302939 -0.673880
vn 0.345891 0.345892 -0.872192
vn 0.302939 0.673880 -0.673880
vn 0.345892 0.872192 -0.345891
vn 0.673880 0.673880 -0.302939
vn 0.577350 0.577350 -0.577350
vn 0.872192 -0.345891 -0.345892
vn 0.673880 -0.673880 -0.302939
vn 0.345892 -0.872192 -0.345891
vn 0.302939 -0.673880 -0.673880
vn 0.345891 -0.345892 -0.872192
vn 0.673880 -0.302939 -0.673880
vn 0.577350 -0.577350 -0.577350
s 1
f 53/60/1 52/1/2 1/48/3 5/2/4 19/52/5 18/3/6 36/56/7 35/4/8
s 2
f 5/9/9 14/17/10 31/26/11 19/5/12
f 57/40/13 40/109/14 23/87/15 10/69/16
f 52/41/17 61/135/18 6/64/19 1/6/20
f 18/20/21 27/27/22 48/36/23 36/7/24
f 35/30/25 44/37/26 65/47/27 53/8/28
f 5/9/9 4/10/29 15/74/30 14/17/10
f 4/10/29 3/11/31 16/75/32 15/74/30
f 3/12/31 2/14/33 17/77/34 16/13/32
f 2/14/33 1/6/20 6/64/19 17/77/34
f 10/69/16 9/68/35 58/131/36 57/40/13
f 9/68/35 8/15/37 59/132/38 58/131/36
f 8/66/37 7/65/39 60/134/40 59/16/38
f 7/65/39 6/64/19 61/135/18 60/134/40
f 14/17/10 13/73/41 32/96/42 31/26/11
f 13/73/41 12/18/43 33/97/44 32/96/42
f 12/71/43 11/70/45 34/99/46 33/19/44
f 11/70/45 10/69/16 23/87/15 34/99/46
f 18/20/21 22/21/47 28/92/48 27/27/22
f 22/21/47 21/22/49 29/93/50 28/92/48
f 21/23/49 20/25/51 30/95/52 29/24/50
f 20/25/51 19/5/12 31/26/11 30/95/52
f 27/27/22 26/91/53 49/118/54 48/36/23
f 26/91/53 25/28/55 50/119/56 49/118/54
f 25/89/55 24/88/57 51/121/58 50/29/56
f 24/88/57 23/87/15 40/109/14 51/121/58
f 35/30/25 39/31/59 45/114/60 44/37/26
f 39/31/59 38/32/61 46/115/62 45/114/60
f 38/33/61 37/35/63 47/117/64 46/34/62
f 37/35/63 36/7/24 48/36/23 47/117/64
f 44/37/26 43/113/65 66/140/66 65/47/27
f 43/113/65 42/38/67 67/141/68 66/140/66
f 42/111/67 41/110/69 68/143/70 67/39/68
f 41/110/69 40/109/14 57/40/13 68/143/70
f 52/41/17 56/42/71 62/136/72 61/135/18
f 56/42/71 55/43/73 63/137/74 62/136/72
f 55/44/73 54/46/75 64/139/76 63/45/74
f 54/46/75 53/8/28 65/47/27 64/139/76
s 1
f 1/48/3 2/49/77 3/50/78 4/51/79 5/2/4
f 18/3/6 19/52/5 20/53/80 21/54/81 22/55/82
f 35/4/8 36/56/7 37/57/83 38/58/84 39/59/85
f 52/1/2 53/60/1 54/61/86 55/62/87 56/63/88
s 2
f 17/77/34 6/64/19 7/65/39 69/78/89
f 69/78/89 7/65/39 8/66/37 70/79/90
f 70/67/90 8/15/37 9/68/35 71/81/91
f 9/68/35 10/69/16 11/70/45 71/81/91
f 71/81/91 11/70/45 12/71/43 72/82/92
f 72/72/92 12/18/43 13/73/41 73/84/93
f 13/73/41 14/17/10 15/74/30 73/84/93
f 73/84/93 15/74/30 16/75/32 74/85/94
f 74/76/94 16/13/32 17/77/34 69/78/89
f 74/76/94 69/78/89 70/79/90 75/80/95
f 70/67/90 71/81/91 72/82/92 75/83/95
f 72/72/92 73/84/93 74/85/94 75/86/95
f 34/99/46 23/87/15 24/88/57 76/100/96
f 76/100/96 24/88/57 25/89/55 77/101/97
f 77/90/97 25/28/55 26/91/53 78/103/98
f 26/91/53 27/27/22 28/92/48 78/103/98
f 78/103/98 28/92/48 29/93/50 79/104/99
f 79/94/99 29/24/50 30/95/52 80/106/100
f 30/95/52 31/26/11 32/96/42 80/106/100
f 80/106/100 32/96/42 33/97/44 81/107/101
f 81/98/101 33/19/44 34/99/46 76/100/96
f 81/98/101 76/100/96 77/101/97 82/102/102
f 77/90/97 78/103/98 79/104/99 82/105/102
f 79/94/99 80/106/100 81/107/101 82/108/102
f 51/121/58 40/109/14 41/110/69 83/122/103
f 83/122/103 41/110/69 42/111/67 84/123/104
f 84/112/104 42/38/67 43/113/65 85/125/105
f 43/113/65 44/37/26 45/114/60 85/125/105
f 85/125/105 45/114/60 46/115/62 86/126/106
f 86/116/106 46/34/62 47/117/64 87/128/107
f 47/117/64 48/36/23 49/118/54 87/128/107
f 87/128/107 49/118/54 50/119/56 88/129/108
f 88/120/108 50/29/56 51/121/58 83/122/103
f 88/120/108 83/122/103 84/123/104 89/124/109
f 84/112/104 85/125/105 86/126/106 89/127/109
f 86/116/106 87/128/107 88/129/108 89/130/109
f 68/143/70 57/40/13 58/131/36 90/144/110
f 90/144/110 58/131/36 59/132/38 91/145/111
f 91/133/111 59/16/38 60/134/40 92/147/112
f 60/134/40 61/135/18 62/136/72 92/147/112
f 92/147/112 62/136/72 63/137/74 93/148/113
f 93/138/113 63/45/74 64/139/76 94/149/114
f 64/139/76 65/47/27 66/140/66 94/149/114
f 94/149/114 66/140/66 67/141/68 95/150/115
f 95/142/115 67/39/68 68/143/70 90/144/110
f 95/142/115 90/144/110 91/145/111 96/146/116
f 91/133/111 92/147/112 93/148/113 96/146/116
f 93/138/113 94/149/114 95/150/115 96/151/116
