# This file uses centimeters as units for non-parametric coordinates.

v -1.000000 -1.000000 1.000000
v -1.000000 -1.000000 -1.000000
v -1.000000 1.000000 0.750025
v -1.000000 0.750025 1.000000
v -1.000000 0.845686 0.980972
v -1.000000 0.926784 0.926784
v -1.000000 0.980972 0.845686
v 1.000000 0.750025 0.750025
v 0.980972 0.845686 0.750025
v 0.926784 0.926784 0.750025
v 0.845686 0.980972 0.750025
v 0.750025 1.000000 0.750025
v 0.750025 0.980972 0.845686
v 0.750025 0.926784 0.926784
v 0.750025 0.845686 0.980972
v 0.750025 0.750025 1.000000
v 0.845686 0.750025 0.980972
v 0.926784 0.750025 0.926784
v 0.980972 0.750025 0.845686
v -1.000000 0.750025 -1.000000
v -1.000000 1.000000 -0.750025
v -1.000000 0.980972 -0.845686
v -1.000000 0.926784 -0.926784
v -1.000000 0.845686 -0.980972
v 1.000000 0.750025 -0.750025
v 0.980972 0.750025 -0.845686
v 0.926784 0.750025 -0.926784
v 0.845686 0.750025 -0.980972
v 0.750025 0.750025 -1.000000
v 0.750025 0.845686 -0.980972
v 0.750025 0.926784 -0.926784
v 0.750025 0.980972 -0.845686
v 0.750025 1.000000 -0.750025
v 0.845686 0.980972 -0.750025
v 0.926784 0.926784 -0.750025
v 0.980972 0.845686 -0.750025
v 1.000000 -1.000000 0.750025
v 0.980972 -1.000000 0.845686
v 0.926784 -1.000000 0.926784
v 0.845686 -1.000000 0.980972
v 0.750025 -1.000000 1.000000
v 1.000000 -1.000000 -0.750025
v 0.750025 -1.000000 -1.000000
v 0.845686 -1.000000 -0.980972
v 0.926784 -1.000000 -0.926784
v 0.980972 -1.000000 -0.845686
v 0.963392 0.842045 0.842045
v 0.916693 0.916693 0.831677
v 0.842045 0.963392 0.842045
v 0.831677 0.916693 0.916693
v 0.842045 0.842045 0.963392
v 0.916693 0.831677 0.916693
v 0.892270 0.892270 0.892270
v 0.963392 0.842045 -0.842045
v 0.916693 0.831677 -0.916693
v 0.842045 0.842045 -0.963392
v 0.831677 0.916693 -0.916693
v 0.842045 0.963392 -0.842045
v 0.916693 0.916693 -0.831677
v 0.892270 0.892270 -0.892270
vt 0.995966 0.002750
vt 0.871853 0.995758
vt 0.002958 0.871645
vt 0.002950 0.002756
vt 0.995958 0.126869
vt 0.871844 0.995764
vt 0.002950 0.995763
vt 0.002958 0.871670
vt 0.002955 0.002776
vt 0.002955 0.871670
vt 0.127068 0.002750
vt 0.871848 0.995764
vt 0.002953 0.995763
vt 0.002958 0.126889
vt 0.002958 0.079393
vt 0.002958 0.039128
vt 0.002955 0.959432
vt 0.871849 0.959432
vt 0.002955 0.919166
vt 0.871853 0.126889
vt 0.959614 0.126889
vt 0.871849 0.959406
vt 0.127068 0.871645
vt 0.079572 0.002750
vt 0.039307 0.871645
vt 0.039307 0.002750
vt 0.919345 0.002776
vt 0.959611 0.002776
vt 0.871849 0.002776
vt 0.002953 0.126869
vt 0.002953 0.079373
vt 0.002953 0.039108
vt 0.002958 0.959432
vt 0.871852 0.959432
vt 0.002958 0.919166
vt 0.871853 0.871670
vt 0.871848 0.126869
vt 0.919344 0.995763
vt 0.959609 0.126869
vt 0.959609 0.995763
vt 0.919345 0.002750
vt 0.959611 0.002750
vt 0.871849 0.002750
vt 0.995966 0.871645
vt 0.986519 0.919141
vt 0.959614 0.959406
vt 0.919349 0.986311
vt 0.127072 0.995758
vt 0.079575 0.986311
vt 0.039310 0.959406
vt 0.012406 0.919141
vt 0.995958 0.871650
vt 0.986510 0.919146
vt 0.959606 0.959411
vt 0.919340 0.986316
vt 0.871844 0.002756
vt 0.919340 0.012203
vt 0.959606 0.039108
vt 0.986510 0.079373
vt 0.127068 0.919141
vt 0.127068 0.959406
vt 0.954604 0.086349
vt 0.919349 0.126889
vt 0.871853 0.079393
vt 0.871853 0.039128
vt 0.912389 0.954421
vt 0.871849 0.919166
vt 0.871849 0.871670
vt 0.919345 0.871670
vt 0.959611 0.871670
vt 0.044317 0.912185
vt 0.079572 0.871645
vt 0.081380 0.917333
vt 0.086528 0.954396
vt 0.056443 0.942270
vt 0.917541 0.081201
vt 0.912393 0.044138
vt 0.942477 0.056264
vt 0.917537 0.917359
vt 0.954600 0.912211
vt 0.942474 0.942295
vt 0.871849 0.871645
vt 0.919345 0.871645
vt 0.959611 0.871645
vt 0.954599 0.086329
vt 0.919344 0.126869
vt 0.871848 0.079373
vt 0.871848 0.039108
vt 0.912393 0.954421
vt 0.871853 0.919166
vt 0.919349 0.871670
vt 0.959614 0.871670
vt 0.912389 0.954396
vt 0.871849 0.919141
vt 0.917537 0.917333
vt 0.954600 0.912185
vt 0.942474 0.942270
vt 0.917536 0.081181
vt 0.912388 0.044118
vt 0.942473 0.056244
vt 0.917541 0.917359
vt 0.954604 0.912211
vt 0.942477 0.942295
vn 0.000000 0.000000 1.000000
vn 0.010309 0.000000 0.999947
vn 0.010277 0.010277 0.999894
vn 0.000000 0.010309 0.999947
vn 0.000000 0.010309 -0.999947
vn 0.010277 0.010277 -0.999894
vn 0.010309 0.000000 -0.999947
vn 0.000000 0.000000 -1.000000
vn 0.000000 -1.000000 0.000000
vn 0.000000 -1.000000 0.000000
vn 0.000000 -1.000000 0.000000
vn 0.000000 -1.000000 0.000000
vn 0.000000 -1.000000 0.000000
vn 0.000000 -1.000000 0.000000
vn -1.000000 0.000000 0.000000
vn -1.000000 0.000000 0.000000
vn -1.000000 0.000000 0.000000
vn -1.000000 0.000000 0.000000
vn -1.000000 0.000000 0.000000
vn -1.000000 0.000000 0.000000
vn 0.000000 0.999929 0.011924
vn 0.010272 0.999877 0.011887
vn 0.010272 0.999877 -0.011887
vn 0.000000 0.999929 -0.011924
vn 0.999929 0.000000 -0.011924
vn 0.999877 0.010272 -0.011887
vn 0.999877 0.010272 0.011887
vn 0.999929 0.000000 0.011924
vn 0.000000 0.923880 0.382683
vn 0.008850 0.924149 0.381929
vn 0.000000 0.707107 0.707107
vn 0.007955 0.707084 0.707084
vn 0.000000 0.382683 0.923880
vn 0.008850 0.381929 0.924149
vn 0.381808 0.924185 0.010245
vn 0.381808 0.924185 -0.010245
vn 0.707077 0.707077 0.009213
vn 0.707077 0.707077 -0.009213
vn 0.924185 0.381808 0.010245
vn 0.924185 0.381808 -0.010245
vn 0.924149 0.008850 0.381929
vn 0.923880 0.000000 0.382683
vn 0.707084 0.007955 0.707084
vn 0.707107 0.000000 0.707107
vn 0.381929 0.008850 0.924149
vn 0.382683 0.000000 0.923880
vn 0.000000 0.382683 -0.923880
vn 0.008850 0.381929 -0.924149
vn 0.000000 0.707107 -0.707107
vn 0.007955 0.707084 -0.707084
vn 0.000000 0.923880 -0.382683
vn 0.008850 0.924149 -0.381929
vn 0.381929 0.008850 -0.924149
vn 0.382683 0.000000 -0.923880
vn 0.707084 0.007955 -0.707084
vn 0.707107 0.000000 -0.707107
vn 0.924149 0.008850 -0.381929
vn 0.923880 0.000000 -0.382683
vn -1.000000 0.000000 0.000000
vn -1.000000 0.000000 0.000000
vn -1.000000 0.000000 0.000000
vn -1.000000 0.000000 0.000000
vn -1.000000 0.000000 0.000000
vn -1.000000 0.000000 0.000000
vn 0.000000 -1.000000 0.000000
vn 0.000000 -1.000000 0.000000
vn 0.000000 -1.000000 0.000000
vn 0.000000 -1.000000 0.000000
vn 0.000000 -1.000000 0.000000
vn 0.000000 -1.000000 0.000000
vn 0.872192 0.345891 0.345892
vn 0.673880 0.673880 0.302939
vn 0.345892 0.872192 0.345891
vn 0.302939 0.673880 0.673880
vn 0.345891 0.345892 0.872192
vn 0.673880 0.302939 0.673880
vn 0.577350 0.577350 0.577350
vn 0.872192 0.345891 -0.345892
vn 0.673880 0.302939 -0.673880
vn 0.345891 0.345892 -0.872192
vn 0.302939 0.673880 -0.673880
vn 0.345892 0.872192 -0.345891
vn 0.673880 0.673880 -0.302939
vn 0.577350 0.577350 -0.577350
s 1
f 1/9/1 41/29/2 16/68/3 4/10/4
f 20/30/5 29/37/6 43/12/7 2/13/8
s 3
f 2/4/9 43/56/10 42/5/11 37/52/12 41/6/13 1/7/14
s 4
f 2/4/15 1/1/16 4/44/17 3/2/18 21/48/19 20/3/20
s 1
f 3/14/21 12/20/22 33/36/23 21/8/24
f 42/43/25 25/82/26 8/23/27 37/11/28
f 3/14/21 7/15/29 13/64/30 12/20/22
f 7/15/29 6/16/31 14/65/32 13/64/30
f 6/17/31 5/19/33 15/67/34 14/18/32
f 5/19/33 4/10/4 16/68/3 15/67/34
f 12/20/22 11/63/35 34/91/36 33/36/23
f 11/63/35 10/21/37 35/92/38 34/91/36
f 10/61/37 9/60/39 36/94/40 35/22/38
f 9/60/39 8/23/27 25/82/26 36/94/40
f 8/23/27 19/72/41 38/24/42 37/11/28
f 19/72/41 18/25/43 39/26/44 38/24/42
f 18/70/43 17/69/45 40/27/46 39/28/44
f 17/69/45 16/68/3 41/29/2 40/27/46
f 20/30/5 24/31/47 30/87/48 29/37/6
f 24/31/47 23/32/49 31/88/50 30/87/48
f 23/33/49 22/35/51 32/90/52 31/34/50
f 22/35/51 21/8/24 33/36/23 32/90/52
f 29/37/6 28/86/53 44/38/54 43/12/7
f 28/86/53 27/39/55 45/40/56 44/38/54
f 27/84/55 26/83/57 46/41/58 45/42/56
f 26/83/57 25/82/26 42/43/25 46/41/58
s 4
f 3/2/18 4/44/17 5/45/59 6/46/60 7/47/61
f 20/3/20 21/48/19 22/49/62 23/50/63 24/51/64
s 3
f 37/52/12 38/53/65 39/54/66 40/55/67 41/6/13
f 42/5/11 43/56/10 44/57/68 45/58/69 46/59/70
s 1
f 19/72/41 8/23/27 9/60/39 47/73/71
f 47/73/71 9/60/39 10/61/37 48/74/72
f 48/62/72 10/21/37 11/63/35 49/76/73
f 11/63/35 12/20/22 13/64/30 49/76/73
f 49/76/73 13/64/30 14/65/32 50/77/74
f 50/66/74 14/18/32 15/67/34 51/79/75
f 15/67/34 16/68/3 17/69/45 51/79/75
f 51/79/75 17/69/45 18/70/43 52/80/76
f 52/71/76 18/25/43 19/72/41 47/73/71
f 52/71/76 47/73/71 48/74/72 53/75/77
f 48/62/72 49/76/73 50/77/74 53/78/77
f 50/66/74 51/79/75 52/80/76 53/81/77
f 36/94/40 25/82/26 26/83/57 54/95/78
f 54/95/78 26/83/57 27/84/55 55/96/79
f 55/85/79 27/39/55 28/86/53 56/98/80
f 28/86/53 29/37/6 30/87/48 56/98/80
f 56/98/80 30/87/48 31/88/50 57/99/81
f 57/89/81 31/34/50 32/90/52 58/101/82
f 32/90/52 33/36/23 34/91/36 58/101/82
f 58/101/82 34/91/36 35/92/38 59/102/83
f 59/93/83 35/22/38 36/94/40 54/95/78
f 59/93/83 54/95/78 55/96/79 60/97/84
f 55/85/79 56/98/80 57/99/81 60/100/84
f 57/89/81 58/101/82 59/102/83 60/103/84
