# This file uses centimeters as units for non-parametric coordinates.

v -1.000000 -0.750025 0.750025
v -0.980972 -0.845686 0.750025
v -0.926784 -0.926784 0.750025
v -0.845686 -0.980972 0.750025
v -0.750025 -1.000000 0.750025
v -0.750025 -0.980972 0.845686
v -0.750025 -0.926784 0.926784
v -0.750025 -0.845686 0.980972
v -0.750025 -0.750025 1.000000
v -0.845686 -0.750025 0.980972
v -0.926784 -0.750025 0.926784
v -0.980972 -0.750025 0.845686
v 0.750025 -1.000000 0.750025
v 0.845686 -0.980972 0.750025
v 0.926784 -0.926784 0.750025
v 0.980972 -0.845686 0.750025
v 1.000000 -0.750025 0.750025
v 0.980972 -0.750025 0.845686
v 0.926784 -0.750025 0.926784
v 0.845686 -0.750025 0.980972
v 0.750025 -0.750025 1.000000
v 0.750025 -0.845686 0.980972
v 0.750025 -0.926784 0.926784
v 0.750025 -0.980972 0.845686
v -0.750025 -1.000000 -0.750025
v -0.845686 -0.980972 -0.750025
v -0.926784 -0.926784 -0.750025
v -0.980972 -0.845686 -0.750025
v -1.000000 -0.750025 -0.750025
v -0.980972 -0.750025 -0.845686
v -0.926784 -0.750025 -0.926784
v -0.845686 -0.750025 -0.980972
v -0.750025 -0.750025 -1.000000
v -0.750025 -0.845686 -0.980972
v -0.750025 -0.926784 -0.926784
v -0.750025 -0.980972 -0.845686
v 1.000000 -0.750025 -0.750025
v 0.980972 -0.845686 -0.750025
v 0.926784 -0.926784 -0.750025
v 0.845686 -0.980972 -0.750025
v 0.750025 -1.000000 -0.750025
v 0.750025 -0.980972 -0.845686
v 0.750025 -0.926784 -0.926784
v 0.750025 -0.845686 -0.980972
v 0.750025 -0.750025 -1.000000
v 0.845686 -0.750025 -0.980972
v 0.926784 -0.750025 -0.926784
v 0.980972 -0.750025 -0.845686
v -1.000000 1.000000 0.750025
v -0.980972 1.000000 0.845686
v -0.926784 1.000000 0.926784
v -0.845686 1.000000 0.980972
v -0.750025 1.000000 1.000000
v 1.000000 1.000000 0.750025
v 0.750025 1.000000 1.000000
v 0.845686 1.000000 0.980972
v 0.926784 1.000000 0.926784
v 0.980972 1.000000 0.845686
v -0.845686 1.000000 -0.980972
v -0.926784 1.000000 -0.926784
v -0.980972 1.000000 -0.845686
v -1.000000 1.000000 -0.750025
v -0.750025 1.000000 -1.000000
v 0.980972 1.000000 -0.845686
v 0.926784 1.000000 -0.926784
v 0.845686 1.000000 -0.980972
v 0.750025 1.000000 -1.000000
v 1.000000 1.000000 -0.750025
v -0.963392 -0.842045 0.842045
v -0.916693 -0.916693 0.831677
v -0.842045 -0.963392 0.842045
v -0.831677 -0.916693 0.916693
v -0.842045 -0.842045 0.963392
v -0.916693 -0.831677 0.916693
v -0.892270 -0.892270 0.892270
v 0.842045 -0.963392 0.842045
v 0.916693 -0.916693 0.831677
v 0.963392 -0.842045 0.842045
v 0.916693 -0.831677 0.916693
v 0.842045 -0.842045 0.963392
v 0.831677 -0.916693 0.916693
v 0.892270 -0.892270 0.892270
v -0.842045 -0.963392 -0.842045
v -0.916693 -0.916693 -0.831677
v -0.963392 -0.842045 -0.842045
v -0.916693 -0.831677 -0.916693
v -0.842045 -0.842045 -0.963392
v -0.831677 -0.916693 -0.916693
v -0.892270 -0.892270 -0.892270
v 0.963392 -0.842045 -0.842045
v 0.916693 -0.916693 -0.831677
v 0.842045 -0.963392 -0.842045
v 0.831677 -0.916693 -0.916693
v 0.842045 -0.842045 -0.963392
v 0.916693 -0.831677 -0.916693
v 0.892270 -0.892270 -0.892270
vt 0.127072 0.002776
vt 0.995966 0.126889
vt 0.871853 0.995784
vt 0.002958 0.871670
vt 0.871849 0.995784
vt 0.871853 0.995758
vt 0.871849 0.995758
vt 0.127067 0.002756
vt 0.039302 0.871650
vt 0.127072 0.039102
vt 0.127068 0.039128
vt 0.871844 0.959412
vt 0.871853 0.126864
vt 0.919349 0.995758
vt 0.959614 0.126864
vt 0.959614 0.995758
vt 0.079572 0.995784
vt 0.039307 0.995784
vt 0.127068 0.995784
vt 0.127068 0.039102
vt 0.959606 0.126869
vt 0.871849 0.126889
vt 0.919345 0.995784
vt 0.959610 0.126889
vt 0.959611 0.995784
vt 0.079572 0.995758
vt 0.039307 0.995758
vt 0.127068 0.995758
vt 0.079571 0.002756
vt 0.039305 0.871650
vt 0.039305 0.002756
vt 0.079575 0.995758
vt 0.039310 0.995758
vt 0.127072 0.995758
vt 0.127063 0.126869
vt 0.127063 0.039108
vt 0.871848 0.959412
vt 0.871849 0.126864
vt 0.919345 0.995758
vt 0.959610 0.126864
vt 0.959611 0.995758
vt 0.919344 0.002756
vt 0.959609 0.002756
vt 0.871848 0.002756
vt 0.002958 0.126889
vt 0.012406 0.079393
vt 0.039310 0.039128
vt 0.079575 0.012223
vt 0.871853 0.002776
vt 0.919349 0.012223
vt 0.959614 0.039128
vt 0.986519 0.079393
vt 0.079575 0.986336
vt 0.039310 0.959432
vt 0.012406 0.919166
vt 0.127072 0.995784
vt 0.986519 0.919166
vt 0.959614 0.959432
vt 0.919349 0.986336
vt 0.995966 0.871670
vt 0.871853 0.079368
vt 0.871853 0.039102
vt 0.044312 0.912190
vt 0.079567 0.871650
vt 0.127063 0.871650
vt 0.127063 0.919146
vt 0.127063 0.959412
vt 0.086528 0.044138
vt 0.127068 0.079393
vt 0.127068 0.126889
vt 0.079572 0.126889
vt 0.039307 0.126889
vt 0.954604 0.086323
vt 0.919349 0.126864
vt 0.917541 0.081175
vt 0.912393 0.044113
vt 0.942477 0.056239
vt 0.081375 0.917338
vt 0.086523 0.954401
vt 0.056438 0.942275
vt 0.081380 0.081201
vt 0.044317 0.086349
vt 0.056443 0.056264
vt 0.871844 0.871650
vt 0.919340 0.871650
vt 0.959606 0.871650
vt 0.086528 0.044113
vt 0.127068 0.079368
vt 0.127068 0.126864
vt 0.079572 0.126864
vt 0.039307 0.126864
vt 0.954600 0.086349
vt 0.919345 0.126889
vt 0.871849 0.079393
vt 0.871849 0.039128
vt 0.912385 0.954401
vt 0.871844 0.919146
vt 0.917532 0.917338
vt 0.954595 0.912190
vt 0.942469 0.942275
vt 0.081380 0.081176
vt 0.044317 0.086323
vt 0.056443 0.056239
vt 0.917537 0.081201
vt 0.912389 0.044138
vt 0.942474 0.056264
vt 0.079567 0.126869
vt 0.039302 0.126869
vt 0.086531 0.044113
vt 0.127072 0.079368
vt 0.127072 0.126864
vt 0.079575 0.126864
vt 0.039310 0.126864
vt 0.044316 0.912190
vt 0.079571 0.871650
vt 0.127067 0.871650
vt 0.127067 0.919146
vt 0.127067 0.959412
vt 0.086523 0.044118
vt 0.127063 0.079373
vt 0.081375 0.081181
vt 0.044312 0.086329
vt 0.056438 0.056244
vt 0.081383 0.081176
vt 0.044320 0.086323
vt 0.081379 0.917338
vt 0.086527 0.954401
vt 0.056442 0.942275
vt 0.871849 0.079368
vt 0.871849 0.039102
vt 0.954595 0.086329
vt 0.919340 0.126869
vt 0.871844 0.126869
vt 0.871844 0.079373
vt 0.871844 0.039108
vt 0.912388 0.954401
vt 0.871848 0.919146
vt 0.871848 0.871650
vt 0.919344 0.871650
vt 0.959609 0.871650
vt 0.954600 0.086323
vt 0.919345 0.126864
vt 0.917537 0.081175
vt 0.912389 0.044113
vt 0.942474 0.056239
vt 0.917532 0.081181
vt 0.912385 0.044118
vt 0.917536 0.917338
vt 0.954599 0.912190
vt 0.942473 0.942275
vn 0.000000 1.000000 -0.000000
vn 0.000000 1.000000 -0.000000
vn 0.000000 1.000000 -0.000000
vn 0.000000 1.000000 -0.000000
vn 0.000000 1.000000 -0.000000
vn 0.000000 1.000000 -0.000000
vn 0.000000 1.000000 -0.000000
vn 0.000000 1.000000 -0.000000
vn -0.011882 -0.999859 -0.011882
vn 0.011882 -0.999859 -0.011882
vn 0.011882 -0.999859 0.011882
vn -0.011882 -0.999859 0.011882
vn -0.011924 0.000000 0.999929
vn -0.011887 -0.010272 0.999877
vn 0.011887 -0.010272 0.999877
vn 0.011924 0.000000 0.999929
vn -0.999929 0.000000 -0.011924
vn -0.999877 -0.010272 -0.011887
vn -0.999877 -0.010272 0.011887
vn -0.999929 0.000000 0.011924
vn 0.999929 0.000000 0.011924
vn 0.999877 -0.010272 0.011887
vn 0.999877 -0.010272 -0.011887
vn 0.999929 0.000000 -0.011924
vn 0.011924 0.000000 -0.999929
vn 0.011887 -0.010272 -0.999877
vn -0.011887 -0.010272 -0.999877
vn -0.011924 0.000000 -0.999929
vn -0.381808 -0.924185 0.010245
vn -0.381808 -0.924185 -0.010245
vn -0.707077 -0.707077 0.009213
vn -0.707077 -0.707077 -0.009213
vn -0.924185 -0.381808 0.010245
vn -0.924185 -0.381808 -0.010245
vn -0.010245 -0.381808 0.924185
vn 0.010245 -0.381808 0.924185
vn -0.009213 -0.707077 0.707077
vn 0.009213 -0.707077 0.707077
vn -0.010245 -0.924185 0.381808
vn 0.010245 -0.924185 0.381808
vn -0.924149 -0.008850 0.381929
vn -0.923880 0.000000 0.382683
vn -0.707084 -0.007955 0.707084
vn -0.707107 0.000000 0.707107
vn -0.381929 -0.008850 0.924149
vn -0.382683 0.000000 0.923880
vn 0.924185 -0.381808 0.010245
vn 0.924185 -0.381808 -0.010245
vn 0.707077 -0.707077 0.009213
vn 0.707077 -0.707077 -0.009213
vn 0.381808 -0.924185 0.010245
vn 0.381808 -0.924185 -0.010245
vn 0.381929 -0.008850 0.924149
vn 0.382683 0.000000 0.923880
vn 0.707084 -0.007955 0.707084
vn 0.707107 0.000000 0.707107
vn 0.924149 -0.008850 0.381929
vn 0.923880 0.000000 0.382683
vn -0.381929 -0.008850 -0.924149
vn -0.382683 0.000000 -0.923880
vn -0.707084 -0.007955 -0.707084
vn -0.707107 0.000000 -0.707107
vn -0.924149 -0.008850 -0.381929
vn -0.923880 0.000000 -0.382683
vn -0.010245 -0.924185 -0.381808
vn 0.010245 -0.924185 -0.381808
vn -0.009213 -0.707077 -0.707077
vn 0.009213 -0.707077 -0.707077
vn -0.010245 -0.381808 -0.924185
vn 0.010245 -0.381808 -0.924185
vn 0.924149 -0.008850 -0.381929
vn 0.923880 0.000000 -0.382683
vn 0.707084 -0.007955 -0.707084
vn 0.707107 0.000000 -0.707107
vn 0.381929 -0.008850 -0.924149
vn 0.382683 0.000000 -0.923880
vn 0.000000 1.000000 0.000000
vn 0.000000 1.000000 0.000000
vn 0.000000 1.000000 0.000000
vn 0.000000 1.000000 0.000000
vn 0.000000 1.000000 0.000000
vn 0.000000 1.000000 0.000000
vn 0.000000 1.000000 0.000000
vn 0.000000 1.000000 0.000000
vn 0.000000 1.000000 0.000000
vn 0.000000 1.000000 0.000000
vn 0.000000 1.000000 0.000000
vn 0.000000 1.000000 0.000000
vn -0.872192 -0.345891 0.345892
vn -0.673880 -0.673880 0.302939
vn -0.345892 -0.872192 0.345891
vn -0.302939 -0.673880 0.673880
vn -0.345891 -0.345892 0.872192
vn -0.673880 -0.302939 0.673880
vn -0.577350 -0.577350 0.577350
vn 0.345892 -0.872192 0.345891
vn 0.673880 -0.673880 0.302939
vn 0.872192 -0.345891 0.345892
vn 0.673880 -0.302939 0.673880
vn 0.345891 -0.345892 0.872192
vn 0.302939 -0.673880 0.673880
vn 0.577350 -0.577350 0.577350
vn -0.345892 -0.872192 -0.345891
vn -0.673880 -0.673880 -0.302939
vn -0.872192 -0.345891 -0.345892
vn -0.673880 -0.302939 -0.673880
vn -0.345891 -0.345892 -0.872192
vn -0.302939 -0.673880 -0.673880
vn -0.577350 -0.577350 -0.577350
vn 0.872192 -0.345891 -0.345892
vn 0.673880 -0.673880 -0.302939
vn 0.345892 -0.872192 -0.345891
vn 0.302939 -0.673880 -0.673880
vn 0.345891 -0.345892 -0.872192
vn 0.673880 -0.302939 -0.673880
vn 0.577350 -0.577350 -0.577350
s 1
f 49/45/1 53/1/2 55/49/3 54/2/4 68/60/5 67/3/6 63/56/7 62/4/8
s 2
f 25/35/9 41/133/10 13/84/11 5/65/12
f 53/19/13 9/70/14 21/22/15 55/5/16
f 62/34/17 29/111/18 1/13/19 49/6/20
f 54/28/21 17/89/22 37/38/23 68/7/24
f 67/44/25 45/138/26 33/116/27 63/8/28
f 5/65/12 4/64/29 26/107/30 25/35/9
f 4/64/29 3/9/31 27/108/32 26/107/30
f 3/62/31 2/61/33 28/110/34 27/10/32
f 2/61/33 1/13/19 29/111/18 28/110/34
f 9/70/14 8/69/35 22/94/36 21/22/15
f 8/69/35 7/11/37 23/95/38 22/94/36
f 7/67/37 6/66/39 24/97/40 23/12/38
f 6/66/39 5/65/12 13/84/11 24/97/40
f 1/13/19 12/74/41 50/14/42 49/6/20
f 12/74/41 11/15/43 51/16/44 50/14/42
f 11/72/43 10/71/45 52/17/46 51/18/44
f 10/71/45 9/70/14 53/19/13 52/17/46
f 17/89/22 16/88/47 38/129/48 37/38/23
f 16/88/47 15/20/49 39/130/50 38/129/48
f 15/86/49 14/85/51 40/132/52 39/21/50
f 14/85/51 13/84/11 41/133/10 40/132/52
f 21/22/15 20/93/53 56/23/54 55/5/16
f 20/93/53 19/24/55 57/25/56 56/23/54
f 19/91/55 18/90/57 58/26/58 57/27/56
f 18/90/57 17/89/22 54/28/21 58/26/58
f 33/116/27 32/115/59 59/29/60 63/8/28
f 32/115/59 31/30/61 60/31/62 59/29/60
f 31/113/61 30/112/63 61/32/64 60/33/62
f 30/112/63 29/111/18 62/34/17 61/32/64
f 25/35/9 36/120/65 42/134/66 41/133/10
f 36/120/65 35/36/67 43/135/68 42/134/66
f 35/118/67 34/117/69 44/137/70 43/37/68
f 34/117/69 33/116/27 45/138/26 44/137/70
f 37/38/23 48/142/71 64/39/72 68/7/24
f 48/142/71 47/40/73 65/41/74 64/39/72
f 47/140/73 46/139/75 66/42/76 65/43/74
f 46/139/75 45/138/26 67/44/25 66/42/76
s 1
f 49/45/1 50/46/77 51/47/78 52/48/79 53/1/2
f 54/2/4 55/49/3 56/50/80 57/51/81 58/52/82
f 59/53/83 60/54/84 61/55/85 62/4/8 63/56/7
f 64/57/86 65/58/87 66/59/88 67/3/6 68/60/5
s 2
f 12/74/41 1/13/19 2/61/33 69/75/89
f 69/75/89 2/61/33 3/62/31 70/76/90
f 70/63/90 3/9/31 4/64/29 71/78/91
f 4/64/29 5/65/12 6/66/39 71/78/91
f 71/78/91 6/66/39 7/67/37 72/79/92
f 72/68/92 7/11/37 8/69/35 73/81/93
f 8/69/35 9/70/14 10/71/45 73/81/93
f 73/81/93 10/71/45 11/72/43 74/82/94
f 74/73/94 11/15/43 12/74/41 69/75/89
f 74/73/94 69/75/89 70/76/90 75/77/95
f 70/63/90 71/78/91 72/79/92 75/80/95
f 72/68/92 73/81/93 74/82/94 75/83/95
f 24/97/40 13/84/11 14/85/51 76/98/96
f 76/98/96 14/85/51 15/86/49 77/99/97
f 77/87/97 15/20/49 16/88/47 78/101/98
f 16/88/47 17/89/22 18/90/57 78/101/98
f 78/101/98 18/90/57 19/91/55 79/102/99
f 79/92/99 19/24/55 20/93/53 80/104/100
f 20/93/53 21/22/15 22/94/36 80/104/100
f 80/104/100 22/94/36 23/95/38 81/105/101
f 81/96/101 23/12/38 24/97/40 76/98/96
f 81/96/101 76/98/96 77/99/97 82/100/102
f 77/87/97 78/101/98 79/102/99 82/103/102
f 79/92/99 80/104/100 81/105/101 82/106/102
f 36/120/65 25/35/9 26/107/30 83/121/103
f 83/121/103 26/107/30 27/108/32 84/122/104
f 84/109/104 27/10/32 28/110/34 85/124/105
f 28/110/34 29/111/18 30/112/63 85/124/105
f 85/124/105 30/112/63 31/113/61 86/125/106
f 86/114/106 31/30/61 32/115/59 87/126/107
f 32/115/59 33/116/27 34/117/69 87/126/107
f 87/126/107 34/117/69 35/118/67 88/127/108
f 88/119/108 35/36/67 36/120/65 83/121/103
f 88/119/108 83/121/103 84/122/104 89/123/109
f 84/109/104 85/124/105 86/125/106 89/123/109
f 86/114/106 87/126/107 88/127/108 89/128/109
f 48/142/71 37/38/23 38/129/48 90/143/110
f 90/143/110 38/129/48 39/130/50 91/144/111
f 91/131/111 39/21/50 40/132/52 92/146/112
f 40/132/52 41/133/10 42/134/66 92/146/112
f 92/146/112 42/134/66 43/135/68 93/147/113
f 93/136/113 43/37/68 44/137/70 94/148/114
f 44/137/70 45/138/26 46/139/75 94/148/114
f 94/148/114 46/139/75 47/140/73 95/149/115
f 95/141/115 47/40/73 48/142/71 90/143/110
f 95/141/115 90/143/110 91/144/111 96/145/116
f 91/131/111 92/146/112 93/147/113 96/145/116
f 93/136/113 94/148/114 95/149/115 96/150/116
