# This file uses centimeters as units for non-parametric coordinates.

v -1.000000 -1.000000 1.000000
v 1.000000 -1.000000 1.000000
v -1.000000 -1.000000 -1.000000
v 1.000000 -1.000000 -1.000000
v -1.000000 1.000000 0.750025
v -1.000000 0.750025 1.000000
v -1.000000 0.845686 0.980972
v -1.000000 0.926784 0.926784
v -1.000000 0.980972 0.845686
v 1.000000 1.000000 0.750025
v 1.000000 0.980972 0.845686
v 1.000000 0.926784 0.926784
v 1.000000 0.845686 0.980972
v 1.000000 0.750025 1.000000
v -1.000000 0.750025 -1.000000
v -1.000000 1.000000 -0.750025
v -1.000000 0.980972 -0.845686
v -1.000000 0.926784 -0.926784
v -1.000000 0.845686 -0.980972
v 1.000000 0.750025 -1.000000
v 1.000000 0.845686 -0.980972
v 1.000000 0.926784 -0.926784
v 1.000000 0.980972 -0.845686
v 1.000000 1.000000 -0.750025
vt 0.002950 0.002756
vt 0.995958 0.995763
vt 0.002950 0.995763
vt 0.995966 0.002750
vt 0.871853 0.995758
vt 0.002958 0.871645
vt 0.002955 0.002750
vt 0.995963 0.002750
vt 0.871849 0.995758
vt 0.002955 0.871645
vt 0.002955 0.002776
vt 0.995963 0.002776
vt 0.002955 0.871670
vt 0.995961 0.126869
vt 0.995961 0.995763
vt 0.002953 0.995763
vt 0.995966 0.126889
vt 0.002958 0.871670
vt 0.002958 0.126889
vt 0.995966 0.079393
vt 0.002958 0.079393
vt 0.002958 0.039128
vt 0.995966 0.039128
vt 0.002955 0.959432
vt 0.995962 0.919166
vt 0.995963 0.959432
vt 0.002955 0.919166
vt 0.995963 0.871670
vt 0.002953 0.126869
vt 0.995961 0.079373
vt 0.002953 0.079373
vt 0.002953 0.039108
vt 0.995961 0.039108
vt 0.002958 0.959432
vt 0.995966 0.919166
vt 0.995966 0.959432
vt 0.002958 0.919166
vt 0.995966 0.871670
vt 0.995966 0.871645
vt 0.986519 0.919141
vt 0.959614 0.959406
vt 0.919349 0.986311
vt 0.127068 0.995758
vt 0.079572 0.986311
vt 0.039307 0.959406
vt 0.012402 0.919141
vt 0.127072 0.995758
vt 0.079575 0.986311
vt 0.039310 0.959406
vt 0.012406 0.919141
vt 0.995963 0.871645
vt 0.986515 0.919141
vt 0.959611 0.959406
vt 0.919345 0.986311
vn 0.000000 0.000000 1.000000
vn 0.000000 0.000000 1.000000
vn 0.000000 0.010309 0.999947
vn 0.000000 0.010309 0.999947
vn 0.000000 0.999929 0.011924
vn 0.000000 0.999929 0.011924
vn 0.000000 0.999929 -0.011924
vn 0.000000 0.999929 -0.011924
vn 0.000000 0.010309 -0.999947
vn 0.000000 0.010309 -0.999947
vn 0.000000 0.000000 -1.000000
vn 0.000000 0.000000 -1.000000
vn 0.000000 -1.000000 0.000000
vn 0.000000 -1.000000 0.000000
vn 0.000000 -1.000000 0.000000
vn 0.000000 -1.000000 0.000000
vn 1.000000 0.000000 0.000000
vn 1.000000 0.000000 0.000000
vn 1.000000 0.000000 0.000000
vn 1.000000 0.000000 0.000000
vn 1.000000 0.000000 0.000000
vn 1.000000 0.000000 0.000000
vn -1.000000 0.000000 0.000000
vn -1.000000 0.000000 0.000000
vn -1.000000 0.000000 0.000000
vn -1.000000 0.000000 0.000000
vn -1.000000 0.000000 0.000000
vn -1.000000 0.000000 0.000000
vn 0.000000 0.923880 0.382683
vn 0.000000 0.923880 0.382683
vn 0.000000 0.707107 0.707107
vn 0.000000 0.707107 0.707107
vn 0.000000 0.382683 0.923880
vn 0.000000 0.382683 0.923880
vn 0.000000 0.382683 -0.923880
vn 0.000000 0.382683 -0.923880
vn 0.000000 0.707107 -0.707107
vn 0.000000 0.707107 -0.707107
vn 0.000000 0.923880 -0.382683
vn 0.000000 0.923880 -0.382683
vn -1.000000 0.000000 0.000000
vn -1.000000 0.000000 0.000000
vn -1.000000 0.000000 0.000000
vn 1.000000 0.000000 0.000000
vn 1.000000 0.000000 0.000000
vn 1.000000 0.000000 0.000000
vn -1.000000 0.000000 0.000000
vn -1.000000 0.000000 0.000000
vn -1.000000 0.000000 0.000000
vn 1.000000 0.000000 0.000000
vn 1.000000 0.000000 0.000000
vn 1.000000 0.000000 0.000000
s 1
f 1/11/1 2/12/2 14/28/3 6/13/4
f 5/19/5 10/17/6 24/38/7 16/18/8
f 15/29/9 20/14/10 4/15/11 3/16/12
s off
f 3/1/13 4/8/14 2/2/15 1/3/16
s 4
f 2/7/17 4/8/18 20/51/19 24/9/20 10/43/21 14/10/22
s 5
f 3/1/23 1/4/24 6/39/25 5/5/26 16/47/27 15/6/28
s 1
f 5/19/5 9/21/29 11/20/30 10/17/6
f 9/21/29 8/22/31 12/23/32 11/20/30
f 8/24/31 7/27/33 13/25/34 12/26/32
f 7/27/33 6/13/4 14/28/3 13/25/34
f 15/29/9 19/31/35 21/30/36 20/14/10
f 19/31/35 18/32/37 22/33/38 21/30/36
f 18/34/37 17/37/39 23/35/40 22/36/38
f 17/37/39 16/18/8 24/38/7 23/35/40
s 5
f 5/5/26 6/39/25 7/40/41 8/41/42 9/42/43
s 4
f 10/43/21 11/44/44 12/45/45 13/46/46 14/10/22
s 5
f 15/6/28 16/47/27 17/48/47 18/49/48 19/50/49
s 4
f 20/51/19 21/52/50 22/53/51 23/54/52 24/9/20
