# This file uses centimeters as units for non-parametric coordinates.

mtllib 3.mtl
g default
v -0.507386 -0.485228 0.500000
v -0.174053 -0.485228 0.500000
v 0.174053 -0.433524 0.500000
v 0.503693 -0.451990 0.500000
v -0.492614 -0.155587 0.500000
v -0.218370 -0.155587 0.500000
v 0.222063 -0.092805 0.500000
v 0.503693 -0.107577 0.500000
v -0.470455 0.218343 0.463205
v -0.177746 0.170333 0.463205
v 0.170360 0.196184 0.463205
v 0.536931 0.210957 0.463205
v -0.500000 0.500000 0.500000
v -0.177746 0.459376 0.500000
v 0.166667 0.500000 0.500000
v 0.500000 0.500000 0.500000
v -0.500000 0.438392 0.134494
v -0.177746 0.459376 0.166667
v 0.152524 0.500000 0.128953
v 0.485857 0.500000 0.128953
v -0.509428 0.500000 -0.190238
v -0.187174 0.459376 -0.190238
v 0.166667 0.438392 -0.198839
v 0.518857 0.500000 -0.152524
v -0.500000 0.500000 -0.500000
v -0.168317 0.459376 -0.452858
v 0.166667 0.500000 -0.500000
v 0.518857 0.438392 -0.518030
v -0.470455 0.185227 -0.533115
v -0.168317 0.137217 -0.485973
v 0.170360 0.163069 -0.533115
v 0.555788 0.177841 -0.518973
v -0.500000 -0.122349 -0.500000
v -0.216328 -0.122349 -0.452858
v 0.214677 -0.059567 -0.500000
v 0.515164 -0.074339 -0.485857
v -0.507386 -0.485228 -0.500000
v -0.164624 -0.485228 -0.452858
v 0.174053 -0.433524 -0.500000
v 0.522550 -0.451990 -0.485857
v -0.516815 -0.485228 -0.190238
v -0.172402 -0.481535 -0.190238
v 0.170360 -0.455683 -0.166667
v 0.522550 -0.451990 -0.152524
v -0.507386 -0.415317 0.170346
v -0.162974 -0.411624 0.170346
v 0.156217 -0.385773 0.132632
v 0.489550 -0.382080 0.132632
v 0.515164 -0.074339 -0.152524
v 0.482164 -0.074339 0.128953
v 0.555788 0.203598 -0.152524
v 0.522788 0.210957 0.092158
vt 0.375000 0.000000
vt 0.458333 0.000000
vt 0.458333 0.083333
vt 0.375000 0.083333
vt 0.541667 0.000000
vt 0.541667 0.083333
vt 0.625000 0.000000
vt 0.625000 0.083333
vt 0.458333 0.166667
vt 0.375000 0.166667
vt 0.541667 0.166667
vt 0.625000 0.166667
vt 0.458333 0.250000
vt 0.375000 0.250000
vt 0.541667 0.250000
vt 0.625000 0.250000
vt 0.458333 0.333333
vt 0.375000 0.333333
vt 0.541667 0.333333
vt 0.625000 0.333333
vt 0.458333 0.416667
vt 0.375000 0.416667
vt 0.541667 0.416667
vt 0.625000 0.416667
vt 0.458333 0.500000
vt 0.375000 0.500000
vt 0.541667 0.500000
vt 0.625000 0.500000
vt 0.458333 0.583333
vt 0.375000 0.583333
vt 0.541667 0.583333
vt 0.625000 0.583333
vt 0.458333 0.666667
vt 0.375000 0.666667
vt 0.541667 0.666667
vt 0.625000 0.666667
vt 0.458333 0.750000
vt 0.375000 0.750000
vt 0.541667 0.750000
vt 0.625000 0.750000
vt 0.458333 0.833333
vt 0.375000 0.833333
vt 0.541667 0.833333
vt 0.625000 0.833333
vt 0.458333 0.916667
vt 0.375000 0.916667
vt 0.541667 0.916667
vt 0.625000 0.916667
vt 0.458333 1.000000
vt 0.375000 1.000000
vt 0.541667 1.000000
vt 0.625000 1.000000
vt 0.791667 0.000000
vt 0.875000 0.000000
vt 0.875000 0.083333
vt 0.791667 0.083333
vt 0.708333 0.000000
vt 0.708333 0.083333
vt 0.875000 0.166667
vt 0.791667 0.166667
vt 0.708333 0.166667
vt 0.875000 0.250000
vt 0.791667 0.250000
vt 0.708333 0.250000
vn 0.000000 0.000000 1.000000
vn -0.000896 0.051724 0.998661
vn 0.000000 0.000000 1.000000
vn 0.004262 0.050335 0.998723
vn 0.000000 0.000000 1.000000
vn 0.000000 0.000000 1.000000
vn -0.000896 0.051724 0.998661
vn -0.003530 0.061630 0.998093
vn 0.000000 0.000000 1.000000
vn 0.000000 0.000000 1.000000
vn -0.003530 0.061630 0.998093
vn 0.000000 0.058465 0.998290
vn 0.004262 0.050335 0.998723
vn -0.000896 0.051724 0.998661
vn -0.005533 -0.017796 0.999826
vn -0.002957 0.011355 0.999931
vn -0.000896 0.051724 0.998661
vn -0.003530 0.061630 0.998093
vn -0.002957 0.011355 0.999931
vn -0.000464 0.001070 0.999999
vn 0.000000 0.058465 0.998290
vn 0.001369 -0.007104 0.999974
vn -0.003530 0.061630 0.998093
vn -0.000464 0.001070 0.999999
vn -0.002957 0.011355 0.999931
vn -0.002166 -0.125743 0.992061
vn -0.005533 -0.017796 0.999826
vn -0.018565 -0.128811 0.991495
vn -0.002957 0.011355 0.999931
vn -0.000464 0.001070 0.999999
vn -0.002166 -0.125743 0.992061
vn 0.007039 -0.123053 0.992375
vn 0.001369 -0.007104 0.999974
vn 0.002596 -0.123006 0.992403
vn -0.000464 0.001070 0.999999
vn 0.007039 -0.123053 0.992375
vn -0.044749 0.998134 -0.041554
vn -0.026988 0.999339 -0.024349
vn 0.034717 0.995536 -0.087765
vn 0.030165 0.999528 0.005875
vn -0.044749 0.998134 -0.041554
vn -0.057422 0.998349 0.001153
vn -0.026988 0.999339 -0.024349
vn -0.057041 0.997231 -0.047709
vn 0.000000 1.000000 0.000000
vn -0.038823 0.997968 -0.050527
vn -0.057422 0.998349 0.001153
vn -0.057041 0.997231 -0.047709
vn -0.026988 0.999339 -0.024349
vn 0.021998 0.999475 0.023769
vn 0.030165 0.999528 0.005875
vn 0.071180 0.996177 0.050641
vn -0.026988 0.999339 -0.024349
vn -0.057041 0.997231 -0.047709
vn 0.021998 0.999475 0.023769
vn -0.032108 0.999220 -0.022972
vn -0.057041 0.997231 -0.047709
vn -0.038823 0.997968 -0.050527
vn -0.032108 0.999220 -0.022972
vn -0.041234 0.997707 -0.053665
vn 0.021998 0.999475 0.023769
vn 0.047848 0.997046 0.060083
vn 0.071180 0.996177 0.050641
vn 0.122863 0.992405 0.006072
vn 0.021998 0.999475 0.023769
vn -0.032108 0.999220 -0.022972
vn 0.047848 0.997046 0.060083
vn -0.008337 0.998910 0.045918
vn -0.041234 0.997707 -0.053665
vn 0.000000 1.000000 0.000000
vn -0.032108 0.999220 -0.022972
vn -0.008337 0.998910 0.045918
vn 0.161213 0.109469 -0.980830
vn -0.000684 0.104745 -0.994499
vn 0.156397 0.009481 -0.987649
vn -0.000147 -0.014076 -0.999901
vn -0.078118 0.078613 -0.993840
vn -0.062998 -0.015375 -0.997895
vn -0.000684 0.104745 -0.994499
vn -0.000147 -0.014076 -0.999901
vn -0.078118 0.078613 -0.993840
vn -0.001655 0.056798 -0.998384
vn -0.062998 -0.015375 -0.997895
vn 0.015956 -0.023636 -0.999593
vn -0.000147 -0.014076 -0.999901
vn 0.016877 -0.050356 -0.998589
vn 0.156397 0.009481 -0.987649
vn 0.148325 -0.050185 -0.987664
vn -0.062998 -0.015375 -0.997895
vn -0.034379 -0.060083 -0.997601
vn -0.000147 -0.014076 -0.999901
vn 0.016877 -0.050356 -0.998589
vn -0.062998 -0.015375 -0.997895
vn 0.015956 -0.023636 -0.999593
vn -0.034379 -0.060083 -0.997601
vn 0.042467 -0.057344 -0.997451
vn 0.148325 -0.050185 -0.987664
vn 0.016877 -0.050356 -0.998589
vn 0.148828 0.009088 -0.988821
vn -0.006860 0.002827 -0.999973
vn -0.034379 -0.060083 -0.997601
vn -0.053170 -0.001871 -0.998584
vn 0.016877 -0.050356 -0.998589
vn -0.006860 0.002827 -0.999973
vn -0.034379 -0.060083 -0.997601
vn 0.042467 -0.057344 -0.997451
vn -0.053170 -0.001871 -0.998584
vn 0.043444 -0.001921 -0.999054
vn 0.004921 -0.999966 0.006600
vn 0.060439 -0.998104 -0.011638
vn 0.008109 -0.993869 0.110271
vn 0.050528 -0.993653 0.100502
vn 0.039055 -0.998747 -0.031295
vn 0.042951 -0.994536 0.095154
vn 0.060439 -0.998104 -0.011638
vn 0.050528 -0.993653 0.100502
vn 0.039055 -0.998747 -0.031295
vn -0.019722 -0.999250 -0.033322
vn 0.042951 -0.994536 0.095154
vn -0.008017 -0.995812 0.091078
vn 0.008109 -0.993869 0.110271
vn 0.050528 -0.993653 0.100502
vn 0.008246 -0.999966 0.000531
vn 0.052041 -0.998644 -0.001190
vn 0.042951 -0.994536 0.095154
vn 0.043794 -0.998762 0.023577
vn 0.050528 -0.993653 0.100502
vn 0.052041 -0.998644 -0.001190
vn -0.008017 -0.995812 0.091078
vn -0.009268 -0.999634 0.025430
vn 0.042951 -0.994536 0.095154
vn 0.043794 -0.998762 0.023577
vn 0.052041 -0.998644 -0.001190
vn 0.054215 -0.979776 -0.192615
vn 0.008246 -0.999966 0.000531
vn 0.005324 -0.977124 -0.212604
vn 0.043794 -0.998762 0.023577
vn 0.038296 -0.985655 -0.164368
vn 0.052041 -0.998644 -0.001190
vn 0.054215 -0.979776 -0.192615
vn 0.043794 -0.998762 0.023577
vn -0.009268 -0.999634 0.025430
vn 0.038296 -0.985655 -0.164368
vn -0.022000 -0.987329 -0.157155
vn 0.998780 0.020563 0.044891
vn 0.999809 0.019555 0.000000
vn 0.997272 -0.050449 0.053891
vn 0.998374 -0.056951 0.002496
vn 0.998780 0.020563 0.044891
vn 0.997272 -0.050449 0.053891
vn 0.999544 0.016059 0.025582
vn 0.998339 -0.054424 0.018928
vn 0.998847 0.011049 -0.046709
vn 0.999544 0.016059 0.025582
vn 0.997534 -0.049543 -0.049712
vn 0.998339 -0.054424 0.018928
vn 0.997272 -0.050449 0.053891
vn 0.998374 -0.056951 0.002496
vn 0.998701 -0.002245 0.050905
vn 0.999976 -0.004218 -0.005547
vn 0.998339 -0.054424 0.018928
vn 0.997272 -0.050449 0.053891
vn 0.999516 -0.002279 0.031038
vn 0.998701 -0.002245 0.050905
vn 0.997534 -0.049543 -0.049712
vn 0.998339 -0.054424 0.018928
vn 0.998939 -0.000221 -0.046055
vn 0.999516 -0.002279 0.031038
vn 0.999976 -0.004218 -0.005547
vn 0.991195 0.131477 -0.015693
vn 0.998701 -0.002245 0.050905
vn 0.991003 0.124951 0.047956
vn 0.998701 -0.002245 0.050905
vn 0.991003 0.124951 0.047956
vn 0.999516 -0.002279 0.031038
vn 0.991743 0.126193 0.022849
vn 0.999516 -0.002279 0.031038
vn 0.991743 0.126193 0.022849
vn 0.998939 -0.000221 -0.046055
vn 0.990613 0.131377 -0.037758
s 1
g Rock:pCube1
usemtl initialShadingGroup
f 2/2/1 6/3/2 1/1/3
f 1/1/3 6/3/2 5/4/4
s 2
f 2/2/5 3/5/6 6/3/7
f 6/3/7 3/5/6 7/6/8
s 3
f 3/5/9 4/7/10 7/6/11
f 7/6/11 4/7/10 8/8/12
s 4
f 5/4/13 6/3/14 9/10/15
f 9/10/15 6/3/14 10/9/16
s 5
f 6/3/17 7/6/18 10/9/19
f 10/9/19 7/6/18 11/11/20
s 6
f 8/8/21 12/12/22 7/6/23
f 7/6/23 12/12/22 11/11/24
s 7
f 10/9/25 14/13/26 9/10/27
f 9/10/27 14/13/26 13/14/28
s 8
f 10/9/29 11/11/30 14/13/31
f 14/13/31 11/11/30 15/15/32
s 9
f 12/12/33 16/16/34 11/11/35
f 11/11/35 16/16/34 15/15/36
s 10
f 14/13/37 18/17/38 13/14/39
f 13/14/39 18/17/38 17/18/40
s 11
f 14/13/41 15/15/42 18/17/43
f 18/17/43 15/15/42 19/19/44
s 12
f 16/16/45 20/20/46 15/15/47
f 15/15/47 20/20/46 19/19/48
s 13
f 18/17/49 22/21/50 17/18/51
f 17/18/51 22/21/50 21/22/52
s 14
f 18/17/53 19/19/54 22/21/55
f 22/21/55 19/19/54 23/23/56
s 15
f 19/19/57 20/20/58 23/23/59
f 23/23/59 20/20/58 24/24/60
s 16
f 22/21/61 26/25/62 21/22/63
f 21/22/63 26/25/62 25/26/64
s 17
f 22/21/65 23/23/66 26/25/67
f 26/25/67 23/23/66 27/27/68
s 18
f 24/24/69 28/28/70 23/23/71
f 23/23/71 28/28/70 27/27/72
s 19
f 25/26/73 26/25/74 29/30/75
f 29/30/75 26/25/74 30/29/76
s 20
f 27/27/77 31/31/78 26/25/79
f 26/25/79 31/31/78 30/29/80
s 21
f 27/27/81 28/28/82 31/31/83
f 31/31/83 28/28/82 32/32/84
s 22
f 30/29/85 34/33/86 29/30/87
f 29/30/87 34/33/86 33/34/88
s 23
f 31/31/89 35/35/90 30/29/91
f 30/29/91 35/35/90 34/33/92
s 24
f 31/31/93 32/32/94 35/35/95
f 35/35/95 32/32/94 36/36/96
s 25
f 33/34/97 34/33/98 37/38/99
f 37/38/99 34/33/98 38/37/100
s 26
f 35/35/101 39/39/102 34/33/103
f 34/33/103 39/39/102 38/37/104
s 27
f 35/35/105 36/36/106 39/39/107
f 39/39/107 36/36/106 40/40/108
s 28
f 37/38/109 38/37/110 41/42/111
f 41/42/111 38/37/110 42/41/112
s 29
f 39/39/113 43/43/114 38/37/115
f 38/37/115 43/43/114 42/41/116
s 30
f 39/39/117 40/40/118 43/43/119
f 43/43/119 40/40/118 44/44/120
s 31
f 41/42/121 42/41/122 45/46/123
f 45/46/123 42/41/122 46/45/124
s 32
f 43/43/125 47/47/126 42/41/127
f 42/41/127 47/47/126 46/45/128
s 33
f 44/44/129 48/48/130 43/43/131
f 43/43/131 48/48/130 47/47/132
s 34
f 46/45/133 2/49/134 45/46/135
f 45/46/135 2/49/134 1/50/136
s 35
f 47/47/137 3/51/138 46/45/139
f 46/45/139 3/51/138 2/49/140
s 36
f 47/47/141 48/48/142 3/51/143
f 3/51/143 48/48/142 4/52/144
s 37
f 44/53/145 40/54/146 49/56/147
f 49/56/147 40/54/146 36/55/148
s 38
f 44/53/149 49/56/150 48/57/151
f 48/57/151 49/56/150 50/58/152
s 39
f 4/7/153 48/57/154 8/8/155
f 8/8/155 48/57/154 50/58/156
s 40
f 49/56/157 36/55/158 51/60/159
f 51/60/159 36/55/158 32/59/160
s 41
f 50/58/161 49/56/162 52/61/163
f 52/61/163 49/56/162 51/60/164
s 42
f 8/8/165 50/58/166 12/12/167
f 12/12/167 50/58/166 52/61/168
s 43
f 32/59/169 28/62/170 51/60/171
f 51/60/171 28/62/170 24/63/172
s 44
f 51/60/173 24/63/174 52/61/175
f 52/61/175 24/63/174 20/64/176
s 45
f 52/61/177 20/64/178 12/12/179
f 12/12/179 20/64/178 16/16/180
